<svg width="70" height="68" viewBox="0 0 70 68" fill="none" xmlns="http://www.w3.org/2000/svg">
<g filter="url(#filter0_d)">
<ellipse cx="35" cy="30" rx="31" ry="30" fill="#CEC4C4"/>
</g>
<path d="M34.5 22C34.7818 22 35.052 22.1054 35.2513 22.2929C35.4506 22.4804 35.5625 22.7348 35.5625 23V29H41.9375C42.2193 29 42.4895 29.1054 42.6888 29.2929C42.8881 29.4804 43 29.7348 43 30C43 30.2652 42.8881 30.5196 42.6888 30.7071C42.4895 30.8946 42.2193 31 41.9375 31H35.5625V37C35.5625 37.2652 35.4506 37.5196 35.2513 37.7071C35.052 37.8946 34.7818 38 34.5 38C34.2182 38 33.948 37.8946 33.7487 37.7071C33.5494 37.5196 33.4375 37.2652 33.4375 37V31H27.0625C26.7807 31 26.5105 30.8946 26.3112 30.7071C26.1119 30.5196 26 30.2652 26 30C26 29.7348 26.1119 29.4804 26.3112 29.2929C26.5105 29.1054 26.7807 29 27.0625 29H33.4375V23C33.4375 22.7348 33.5494 22.4804 33.7487 22.2929C33.948 22.1054 34.2182 22 34.5 22V22Z" fill="#DEE2E3"/>
<defs>
<filter id="filter0_d" x="0" y="0" width="70" height="68" filterUnits="userSpaceOnUse" color-interpolation-filters="sRGB">
<feFlood flood-opacity="0" result="BackgroundImageFix"/>
<feColorMatrix in="SourceAlpha" type="matrix" values="0 0 0 0 0 0 0 0 0 0 0 0 0 0 0 0 0 0 127 0" result="hardAlpha"/>
<feOffset dy="4"/>
<feGaussianBlur stdDeviation="2"/>
<feComposite in2="hardAlpha" operator="out"/>
<feColorMatrix type="matrix" values="0 0 0 0 0 0 0 0 0 0 0 0 0 0 0 0 0 0 0.25 0"/>
<feBlend mode="normal" in2="BackgroundImageFix" result="effect1_dropShadow"/>
<feBlend mode="normal" in="SourceGraphic" in2="effect1_dropShadow" result="shape"/>
</filter>
</defs>
</svg>
