<svg width="1500" height="817" viewBox="0 0 1307 905" fill="none" xmlns="http://www.w3.org/2000/svg">
<g opacity="0.7">
<path d="M1436.18 406.711C1417.46 387.235 1417.46 374.25 1417.46 371.004C1417.46 367.758 1417.46 367.758 1417.46 364.512C1413.71 348.282 1436.18 302.837 1447.41 276.868C1454.9 260.638 1462.39 244.407 1466.14 231.423C1473.62 231.423 1477.37 228.177 1481.11 224.931C1484.86 221.685 1507.33 202.208 1503.58 169.748C1499.84 153.517 1499.84 137.287 1499.84 130.795C1499.84 124.302 1499.84 117.81 1496.09 111.318C1488.6 95.0878 1466.14 72.3653 1353.8 43.1506C1346.31 39.9045 1342.57 39.9045 1338.82 36.6584C1338.82 30.1662 1335.08 23.6741 1327.59 20.428C1320.1 13.9359 1305.12 10.6898 1293.89 10.6898C1286.4 10.6898 1256.45 7.44371 1219 0.951554C1200.28 -2.29452 1166.58 0.95156 1147.86 39.9045C1125.39 72.3653 1125.39 98.3339 1144.11 114.564C1151.6 121.056 1159.09 130.795 1170.32 137.287C1125.39 247.653 1080.46 286.606 1065.48 299.591C1028.03 302.837 900.723 319.067 788.39 380.743C642.356 458.648 485.089 458.648 369.01 461.894H357.777C166.81 461.894 114.387 478.125 50.7316 513.832C32.0093 517.078 9.54257 526.816 5.79811 552.785C-1.6908 575.507 -5.43525 598.23 17.0315 617.706C32.0093 640.429 84.4317 715.088 226.721 760.534C219.232 767.026 211.743 770.272 204.254 776.764C181.788 783.256 159.321 802.733 166.81 828.701C170.554 841.685 170.554 851.424 174.299 857.916C174.299 861.162 174.299 864.408 174.299 864.408C178.043 877.392 185.532 887.131 204.254 896.869C226.721 926.084 316.588 1013.73 530.022 1013.73H533.767L530.022 1016.97C488.833 1026.71 492.577 1068.91 492.577 1088.39C492.577 1091.63 492.577 1094.88 492.577 1094.88C492.577 1120.85 518.789 1140.32 537.511 1146.82C541.255 1146.82 545 1153.31 548.744 1156.55L552.489 1159.8C589.933 1189.02 653.589 1202 732.223 1202C754.689 1202 777.156 1202 799.623 1198.75C878.256 1192.26 945.657 1179.28 949.401 1176.03C1121.65 1156.55 1346.31 1036.45 1436.18 848.178C1570.98 581.999 1439.92 413.203 1436.18 406.711ZM818.345 416.449C896.979 374.25 979.357 354.774 1031.78 348.282C1054.25 345.036 1072.97 341.79 1080.46 341.79C1084.2 341.79 1087.95 341.79 1091.69 338.544C1091.69 338.544 1095.43 338.544 1095.43 335.297C1114.16 325.559 1166.58 280.114 1219 156.763C1226.49 160.009 1233.98 163.255 1245.21 169.748C1241.47 192.47 1177.81 293.098 1129.14 354.774C1095.43 377.496 1054.25 409.957 941.912 504.093C822.09 607.968 728.478 659.905 627.378 676.136C627.378 676.136 567.467 685.874 515.044 689.12C511.3 689.12 507.555 689.12 500.066 689.12C462.622 689.12 376.499 692.366 294.121 724.827C166.81 695.612 106.898 640.429 80.6872 607.968L99.4095 543.046V539.8C148.087 517.078 200.51 504.093 361.522 504.093H372.755C402.711 504.093 432.666 504.093 470.111 500.847C571.211 497.601 698.523 481.371 818.345 416.449ZM1290.15 56.1349C1297.64 69.1192 1312.61 82.1035 1342.57 88.5956C1421.2 108.072 1443.67 124.302 1447.41 127.549C1447.41 134.041 1447.41 153.517 1451.16 172.994C1451.16 176.24 1451.16 179.486 1451.16 182.732L1383.76 176.24C1376.27 172.994 1368.78 172.994 1361.29 169.748L1372.52 163.255C1376.27 160.009 1376.27 160.009 1380.01 156.763C1387.5 147.025 1387.5 137.287 1383.76 130.795C1376.27 114.564 1361.29 108.072 1346.31 104.826C1338.82 101.58 1327.59 98.3339 1320.1 95.0878C1308.87 88.5956 1290.15 75.6113 1260.19 56.1349C1271.42 52.8888 1282.66 56.1349 1290.15 56.1349ZM1308.87 147.025C1278.91 134.041 1241.47 114.564 1230.24 111.318C1226.49 111.318 1219 108.072 1215.26 104.826C1215.26 101.58 1211.51 101.58 1207.77 98.3339L1185.3 82.1035C1185.3 78.8574 1189.05 72.3652 1192.79 65.8731C1241.47 98.3339 1275.17 117.81 1286.4 127.549C1297.64 134.041 1305.12 137.287 1316.36 140.533L1308.87 147.025ZM249.188 805.979V802.733C335.31 741.057 447.644 737.811 500.066 737.811C507.555 737.811 515.044 737.811 518.789 737.811C571.211 734.565 623.633 728.073 638.611 724.827C750.945 705.35 852.045 650.167 983.101 539.8C1132.88 413.203 1166.58 390.481 1166.58 390.481C1170.32 390.481 1170.32 387.235 1174.07 383.989C1215.26 332.051 1278.91 237.915 1297.64 192.47H1301.38C1305.12 195.716 1320.1 198.962 1338.82 205.454C1327.59 221.685 1308.87 247.653 1293.89 286.606C1260.19 361.266 1271.42 403.465 1275.17 406.711C1278.91 426.188 1282.66 442.418 1282.66 461.894C1282.66 471.633 1282.66 478.125 1282.66 487.863C1282.66 497.601 1282.66 504.093 1282.66 513.832C1278.91 552.785 1267.68 588.491 1256.45 617.706C1256.45 620.952 1252.7 620.952 1252.7 624.198C1248.96 633.937 1245.21 640.429 1241.47 650.167C1230.24 672.889 1219 682.628 1219 685.874C1166.58 757.288 1057.99 854.67 825.834 919.591C679.8 958.544 559.978 968.283 552.489 968.283C548.744 968.283 541.255 968.283 537.511 968.283C365.266 968.283 290.377 906.607 260.421 880.638V877.392L249.188 805.979ZM571.211 1046.19C574.956 1042.94 574.956 1042.94 578.7 1039.7C589.933 1029.96 601.167 1020.22 616.145 1013.73C619.889 1010.48 623.633 1007.24 627.378 1003.99C676.056 997.497 747.201 984.513 825.834 965.036C1024.29 909.853 1174.07 822.209 1256.45 711.842C1260.19 705.35 1365.04 569.015 1320.1 400.219C1320.1 400.219 1312.61 364.512 1338.82 306.083C1357.55 263.884 1376.27 237.915 1387.5 224.931C1394.99 228.177 1402.48 228.177 1409.97 231.423C1406.22 237.915 1402.48 247.653 1398.74 257.392C1383.76 293.098 1365.04 332.051 1365.04 361.266C1365.04 364.512 1365.04 367.758 1365.04 367.758C1365.04 367.758 1365.04 367.758 1365.04 371.004C1365.04 371.004 1365.04 371.004 1365.04 374.25V377.496V380.743V383.989V387.235V390.481V393.727C1365.04 396.973 1365.04 396.973 1368.78 400.219V403.465C1368.78 406.711 1372.52 409.957 1372.52 413.203C1376.27 416.449 1376.27 419.695 1380.01 422.942C1383.76 426.188 1387.5 429.434 1391.25 435.926C1394.99 439.172 1424.95 481.371 1436.18 549.539C1454.9 640.429 1439.92 734.565 1391.25 831.947C1308.87 1003.99 1099.18 1114.36 945.657 1133.83H941.912C870.768 1150.06 668.567 1182.52 589.933 1127.34C586.189 1124.09 578.7 1117.6 571.211 1111.11V1046.19C571.211 1046.19 574.956 1046.19 571.211 1046.19Z" fill="#E8CC67"/>
<path d="M357.777 848.178C357.777 848.178 361.522 848.178 357.777 848.178C398.966 844.932 485.089 844.932 522.533 844.932C634.867 848.178 758.434 802.733 762.179 802.733C773.412 799.487 784.645 792.994 795.879 789.748C870.768 760.534 915.701 734.565 986.846 689.12C1020.55 666.397 1054.25 640.429 1076.71 620.952L1080.46 617.706C1087.95 611.214 1140.37 559.277 1192.79 487.863C1196.54 481.371 1196.54 478.125 1196.54 471.633C1196.54 465.141 1192.79 461.895 1185.3 458.649C1177.81 455.403 1174.07 455.403 1166.58 455.403C1159.09 455.403 1155.35 458.649 1151.6 465.141C1102.92 530.062 1050.5 582 1043.01 588.492C1016.8 611.214 986.846 633.937 956.89 653.413C878.257 705.35 837.068 728.073 743.456 760.534C743.456 760.534 627.378 802.733 526.278 799.487C485.089 799.487 398.966 799.487 357.777 802.733C350.288 802.733 342.799 805.979 339.055 812.471C335.311 815.717 331.566 822.209 331.566 828.701C335.311 838.44 346.544 848.178 357.777 848.178Z" fill="#E8CC67"/>
<path d="M803.367 536.554C807.112 536.554 810.856 536.554 818.345 533.308C825.834 530.062 837.068 523.57 848.301 520.324C878.257 504.093 904.468 497.601 960.635 458.648C964.379 455.402 968.123 448.91 971.868 442.418C971.868 435.926 971.868 429.434 964.379 426.188C960.635 422.942 953.146 419.695 945.657 416.449C938.168 416.449 930.679 416.449 926.934 422.942C874.512 461.894 852.045 468.387 822.09 481.371C810.856 487.863 799.623 491.109 788.39 497.601C777.156 504.093 773.412 520.324 780.901 530.062C784.645 533.308 792.134 539.8 803.367 536.554Z" fill="#E8CC67"/>
<path d="M163.066 546.293C148.088 549.539 140.599 562.523 144.344 572.261C144.344 578.753 148.088 582 155.577 585.246C159.322 588.492 163.066 588.492 166.81 588.492C170.555 588.492 174.299 588.492 178.044 588.492C275.4 572.261 391.478 591.738 391.478 591.738C428.922 594.984 477.6 598.23 522.534 598.23C582.445 598.23 638.612 591.738 687.29 582C691.034 582 694.779 578.753 698.523 578.753C698.523 578.753 698.523 575.507 702.268 575.507L706.012 572.261V569.015V565.769C706.012 562.523 706.012 559.277 706.012 556.031C706.012 552.785 702.268 549.539 702.268 546.293C702.268 543.047 698.523 543.047 694.779 539.801C691.034 539.801 687.29 536.554 687.29 536.554C683.546 536.554 679.801 536.554 676.057 536.554C574.956 559.277 455.134 552.785 402.711 546.293C387.733 546.293 267.911 526.816 163.066 546.293Z" fill="#E8CC67"/>
<path d="M679.801 1094.88C687.29 1094.88 694.778 1094.88 706.012 1094.88C848.301 1094.88 1117.9 1059.17 1301.38 809.225C1305.13 805.978 1365.04 731.319 1383.76 617.706C1383.76 611.214 1383.76 604.722 1380.01 601.476C1376.27 594.984 1368.78 591.737 1361.29 591.737C1353.8 591.737 1346.31 591.737 1342.57 594.984C1335.08 598.23 1331.34 604.722 1331.34 611.214C1316.36 711.842 1260.19 780.01 1260.19 783.256C1072.97 1033.2 795.879 1049.43 683.545 1046.19C668.567 1046.19 657.334 1055.93 657.334 1068.91C657.334 1075.4 661.078 1081.89 664.823 1085.14C668.567 1091.63 676.056 1094.88 679.801 1094.88Z" fill="#E8CC67"/>
</g>
</svg>
