<svg width="402" height="167" viewBox="0 0 402 167" fill="none" xmlns="http://www.w3.org/2000/svg">
<path d="M204.719 113.04C204.719 110.32 205.332 107.88 206.559 105.72C207.785 103.533 209.452 101.827 211.559 100.6C213.692 99.3733 216.052 98.76 218.639 98.76C221.679 98.76 224.332 99.4933 226.599 100.96C228.865 102.427 230.519 104.507 231.559 107.2H227.199C226.425 105.52 225.305 104.227 223.839 103.32C222.399 102.413 220.665 101.96 218.639 101.96C216.692 101.96 214.945 102.413 213.399 103.32C211.852 104.227 210.639 105.52 209.759 107.2C208.879 108.853 208.439 110.8 208.439 113.04C208.439 115.253 208.879 117.2 209.759 118.88C210.639 120.533 211.852 121.813 213.399 122.72C214.945 123.627 216.692 124.08 218.639 124.08C220.665 124.08 222.399 123.64 223.839 122.76C225.305 121.853 226.425 120.56 227.199 118.88H231.559C230.519 121.547 228.865 123.613 226.599 125.08C224.332 126.52 221.679 127.24 218.639 127.24C216.052 127.24 213.692 126.64 211.559 125.44C209.452 124.213 207.785 122.52 206.559 120.36C205.332 118.2 204.719 115.76 204.719 113.04ZM246.537 127.36C244.484 127.36 242.617 126.893 240.937 125.96C239.284 125.027 237.977 123.707 237.017 122C236.084 120.267 235.617 118.267 235.617 116C235.617 113.76 236.097 111.787 237.057 110.08C238.044 108.347 239.377 107.027 241.057 106.12C242.737 105.187 244.617 104.72 246.697 104.72C248.777 104.72 250.657 105.187 252.337 106.12C254.017 107.027 255.337 108.333 256.297 110.04C257.284 111.747 257.777 113.733 257.777 116C257.777 118.267 257.271 120.267 256.257 122C255.271 123.707 253.924 125.027 252.217 125.96C250.511 126.893 248.617 127.36 246.537 127.36ZM246.537 124.16C247.844 124.16 249.071 123.853 250.217 123.24C251.364 122.627 252.284 121.707 252.977 120.48C253.697 119.253 254.057 117.76 254.057 116C254.057 114.24 253.711 112.747 253.017 111.52C252.324 110.293 251.417 109.387 250.297 108.8C249.177 108.187 247.964 107.88 246.657 107.88C245.324 107.88 244.097 108.187 242.977 108.8C241.884 109.387 241.004 110.293 240.337 111.52C239.671 112.747 239.337 114.24 239.337 116C239.337 117.787 239.657 119.293 240.297 120.52C240.964 121.747 241.844 122.667 242.937 123.28C244.031 123.867 245.231 124.16 246.537 124.16ZM273.243 104.68C275.91 104.68 278.07 105.493 279.723 107.12C281.376 108.72 282.203 111.04 282.203 114.08V127H278.603V114.6C278.603 112.413 278.056 110.747 276.963 109.6C275.87 108.427 274.376 107.84 272.483 107.84C270.563 107.84 269.03 108.44 267.883 109.64C266.763 110.84 266.203 112.587 266.203 114.88V127H262.563V105.08H266.203V108.2C266.923 107.08 267.896 106.213 269.123 105.6C270.376 104.987 271.75 104.68 273.243 104.68ZM298.829 104.68C301.496 104.68 303.656 105.493 305.309 107.12C306.962 108.72 307.789 111.04 307.789 114.08V127H304.189V114.6C304.189 112.413 303.642 110.747 302.549 109.6C301.456 108.427 299.962 107.84 298.069 107.84C296.149 107.84 294.616 108.44 293.469 109.64C292.349 110.84 291.789 112.587 291.789 114.88V127H288.149V105.08H291.789V108.2C292.509 107.08 293.482 106.213 294.709 105.6C295.962 104.987 297.336 104.68 298.829 104.68ZM333.735 115.2C333.735 115.893 333.695 116.627 333.615 117.4H316.095C316.228 119.56 316.962 121.253 318.295 122.48C319.655 123.68 321.295 124.28 323.215 124.28C324.788 124.28 326.095 123.92 327.135 123.2C328.202 122.453 328.948 121.467 329.375 120.24H333.295C332.708 122.347 331.535 124.067 329.775 125.4C328.015 126.707 325.828 127.36 323.215 127.36C321.135 127.36 319.268 126.893 317.615 125.96C315.988 125.027 314.708 123.707 313.775 122C312.842 120.267 312.375 118.267 312.375 116C312.375 113.733 312.828 111.747 313.735 110.04C314.642 108.333 315.908 107.027 317.535 106.12C319.188 105.187 321.082 104.72 323.215 104.72C325.295 104.72 327.135 105.173 328.735 106.08C330.335 106.987 331.562 108.24 332.415 109.84C333.295 111.413 333.735 113.2 333.735 115.2ZM329.975 114.44C329.975 113.053 329.668 111.867 329.055 110.88C328.442 109.867 327.602 109.107 326.535 108.6C325.495 108.067 324.335 107.8 323.055 107.8C321.215 107.8 319.642 108.387 318.335 109.56C317.055 110.733 316.322 112.36 316.135 114.44H329.975ZM337.18 116C337.18 113.733 337.633 111.76 338.54 110.08C339.446 108.373 340.7 107.053 342.3 106.12C343.926 105.187 345.78 104.72 347.86 104.72C350.553 104.72 352.766 105.373 354.5 106.68C356.26 107.987 357.42 109.8 357.98 112.12H354.06C353.686 110.787 352.953 109.733 351.86 108.96C350.793 108.187 349.46 107.8 347.86 107.8C345.78 107.8 344.1 108.52 342.82 109.96C341.54 111.373 340.9 113.387 340.9 116C340.9 118.64 341.54 120.68 342.82 122.12C344.1 123.56 345.78 124.28 347.86 124.28C349.46 124.28 350.793 123.907 351.86 123.16C352.926 122.413 353.66 121.347 354.06 119.96H357.98C357.393 122.2 356.22 124 354.46 125.36C352.7 126.693 350.5 127.36 347.86 127.36C345.78 127.36 343.926 126.893 342.3 125.96C340.7 125.027 339.446 123.707 338.54 122C337.633 120.293 337.18 118.293 337.18 116ZM367.277 108.08V121C367.277 122.067 367.503 122.827 367.957 123.28C368.41 123.707 369.197 123.92 370.317 123.92H372.997V127H369.717C367.69 127 366.17 126.533 365.157 125.6C364.143 124.667 363.637 123.133 363.637 121V108.08H360.797V105.08H363.637V99.56H367.277V105.08H372.997V108.08H367.277ZM376.047 115.96C376.047 113.72 376.5 111.76 377.407 110.08C378.314 108.373 379.554 107.053 381.127 106.12C382.727 105.187 384.514 104.72 386.487 104.72C388.194 104.72 389.78 105.12 391.247 105.92C392.714 106.693 393.834 107.72 394.607 109V97.4H398.287V127H394.607V122.88C393.887 124.187 392.82 125.267 391.407 126.12C389.994 126.947 388.34 127.36 386.447 127.36C384.5 127.36 382.727 126.88 381.127 125.92C379.554 124.96 378.314 123.613 377.407 121.88C376.5 120.147 376.047 118.173 376.047 115.96ZM394.607 116C394.607 114.347 394.274 112.907 393.607 111.68C392.94 110.453 392.034 109.52 390.887 108.88C389.767 108.213 388.527 107.88 387.167 107.88C385.807 107.88 384.567 108.2 383.447 108.84C382.327 109.48 381.434 110.413 380.767 111.64C380.1 112.867 379.767 114.307 379.767 115.96C379.767 117.64 380.1 119.107 380.767 120.36C381.434 121.587 382.327 122.533 383.447 123.2C384.567 123.84 385.807 124.16 387.167 124.16C388.527 124.16 389.767 123.84 390.887 123.2C392.034 122.533 392.94 121.587 393.607 120.36C394.274 119.107 394.607 117.653 394.607 116Z" fill="#1E1E1E"/>
<path d="M173.124 56.3027C170.867 53.6065 170.867 51.809 170.867 51.3596C170.867 50.9103 170.867 50.9102 170.867 50.4609C170.415 48.214 173.124 41.9229 174.478 38.328C175.38 36.0811 176.283 33.8343 176.735 32.0368C177.637 32.0368 178.089 31.5875 178.54 31.1381C178.991 30.6887 181.7 27.9925 181.248 23.4988C180.797 21.252 180.797 19.0052 180.797 18.1064C180.797 17.2077 180.797 16.309 180.346 15.4102C179.443 13.1634 176.735 10.0178 163.193 5.97351C162.291 5.52414 161.839 5.52414 161.388 5.07477C161.388 4.17603 160.937 3.2773 160.034 2.82793C159.131 1.9292 157.326 1.47983 155.971 1.47983C155.069 1.47983 151.458 1.03046 146.944 0.131727C144.687 -0.31764 140.625 0.131728 138.368 5.52414C135.66 10.0178 135.66 13.6128 137.916 15.8596C138.819 16.7583 139.722 18.1064 141.076 19.0052C135.66 34.2837 130.243 39.6761 128.438 41.4735C123.924 41.9229 108.577 44.1697 95.036 52.7077C77.4324 63.4925 58.4747 63.4925 44.4822 63.9419H43.128C20.108 63.9419 13.7888 66.1887 6.11541 71.1318C3.85855 71.5812 1.1503 72.9293 0.698931 76.5242C-0.203816 79.6698 -0.655189 82.8153 2.05305 85.5116C3.85855 88.6571 10.1778 98.9926 27.33 105.284C26.4272 106.182 25.5245 106.632 24.6217 107.531C21.9135 108.429 19.2052 111.125 20.108 114.72C20.5594 116.518 20.5594 117.866 21.0107 118.765C21.0107 119.214 21.0107 119.663 21.0107 119.663C21.4621 121.461 22.3649 122.809 24.6217 124.157C27.33 128.201 38.1629 140.334 63.8912 140.334H64.3426L63.8912 140.784C58.9261 142.132 59.3775 147.974 59.3775 150.67C59.3775 151.119 59.3775 151.569 59.3775 151.569C59.3775 155.163 62.5371 157.86 64.794 158.758C65.2453 158.758 65.6967 159.657 66.1481 160.107L66.5995 160.556C71.1132 164.6 78.7866 166.398 88.2654 166.398C90.9736 166.398 93.6819 166.398 96.3901 165.948C105.869 165.05 113.994 163.252 114.445 162.803C135.208 160.107 162.291 143.48 173.124 117.417C189.373 80.5685 173.575 57.2014 173.124 56.3027ZM98.647 57.6508C108.126 51.809 118.056 49.1128 124.375 48.214C127.084 47.7647 129.34 47.3153 130.243 47.3153C130.695 47.3153 131.146 47.3153 131.597 46.8659C131.597 46.8659 132.049 46.8659 132.049 46.4166C134.305 45.0685 140.625 38.7773 146.944 21.7014C147.847 22.1507 148.749 22.6001 150.104 23.4988C149.652 26.6444 141.979 40.5748 136.111 49.1128C132.049 52.2584 127.084 56.752 113.542 69.7837C99.0984 84.1634 87.814 91.3533 75.6269 93.6002C75.6269 93.6002 68.405 94.9483 62.0857 95.3976C61.6344 95.3976 61.183 95.3976 60.2802 95.3976C55.7665 95.3976 45.3849 95.847 35.4547 100.341C20.108 96.2964 12.886 88.6571 9.7264 84.1634L11.9833 75.1761V74.7267C17.8511 71.5812 24.1704 69.7837 43.5794 69.7837H44.9335C48.5445 69.7837 52.1555 69.7837 56.6693 69.3343C68.8563 68.8849 84.203 66.6381 98.647 57.6508ZM155.52 7.77098C156.423 9.56845 158.228 11.3659 161.839 12.2647C171.318 14.9609 174.026 17.2077 174.478 17.6571C174.478 18.5558 174.478 21.252 174.929 23.9482C174.929 24.3976 174.929 24.8469 174.929 25.2963L166.804 24.3976C165.902 23.9482 164.999 23.9482 164.096 23.4988L165.45 22.6001C165.902 22.1507 165.902 22.1507 166.353 21.7014C167.256 20.3533 167.256 19.0052 166.804 18.1064C165.902 15.8596 164.096 14.9609 162.291 14.5115C161.388 14.0621 160.034 13.6128 159.131 13.1634C157.777 12.2647 155.52 10.4672 151.909 7.77098C153.263 7.32161 154.617 7.77098 155.52 7.77098ZM157.777 20.3533C154.166 18.5558 149.652 15.8596 148.298 15.4102C147.847 15.4102 146.944 14.9609 146.493 14.5115C146.493 14.0621 146.041 14.0621 145.59 13.6128L142.882 11.3659C142.882 10.9165 143.333 10.0178 143.784 9.11908C149.652 13.6128 153.715 16.309 155.069 17.6571C156.423 18.5558 157.326 19.0052 158.68 19.4545L157.777 20.3533ZM30.0382 111.575V111.125C40.4198 102.588 53.961 102.138 60.2802 102.138C61.183 102.138 62.0857 102.138 62.5371 102.138C68.8563 101.689 75.1756 100.79 76.9811 100.341C90.5223 97.6445 102.709 90.0052 118.507 74.7267C136.562 57.2014 140.625 54.0558 140.625 54.0558C141.076 54.0558 141.076 53.6065 141.527 53.1571C146.493 45.9672 154.166 32.9356 156.423 26.6444H156.874C157.326 27.0938 159.131 27.5431 161.388 28.4419C160.034 30.6887 157.777 34.2837 155.971 39.6761C151.909 50.0115 153.263 55.8533 153.715 56.3027C154.166 58.9989 154.617 61.2457 154.617 63.9419C154.617 65.29 154.617 66.1887 154.617 67.5368C154.617 68.8849 154.617 69.7837 154.617 71.1318C154.166 76.5242 152.812 81.4672 151.458 85.5116C151.458 85.9609 151.006 85.9609 151.006 86.4103C150.555 87.7584 150.104 88.6571 149.652 90.0052C148.298 93.1508 146.944 94.4989 146.944 94.9483C140.625 104.834 127.535 118.315 99.5497 127.303C81.9462 132.695 67.5022 134.043 66.5995 134.043C66.1481 134.043 65.2453 134.043 64.794 134.043C44.0308 134.043 35.0033 125.505 31.3923 121.91V121.461L30.0382 111.575ZM68.8563 144.828C69.3077 144.379 69.3077 144.379 69.7591 143.929C71.1132 142.581 72.4673 141.233 74.2728 140.334C74.7242 139.885 75.1756 139.436 75.6269 138.986C81.4948 138.088 90.0709 136.29 99.5497 133.594C123.473 125.955 141.527 113.822 151.458 98.5432C151.909 97.6445 164.548 78.771 159.131 55.4039C159.131 55.4039 158.228 50.4609 161.388 42.3723C163.645 36.5305 165.902 32.9356 167.256 31.1381C168.159 31.5875 169.061 31.5875 169.964 32.0368C169.513 32.9356 169.061 34.2837 168.61 35.6318C166.804 40.5748 164.548 45.9672 164.548 50.0115C164.548 50.4609 164.548 50.9102 164.548 50.9102C164.548 50.9102 164.548 50.9103 164.548 51.3596C164.548 51.3596 164.548 51.3596 164.548 51.809V52.2584V52.7077V53.1571V53.6065V54.0558V54.5052C164.548 54.9546 164.548 54.9546 164.999 55.4039V55.8533C164.999 56.3027 165.45 56.752 165.45 57.2014C165.902 57.6508 165.902 58.1001 166.353 58.5495C166.804 58.9989 167.256 59.4482 167.707 60.347C168.158 60.7963 171.769 66.6381 173.124 76.0748C175.38 88.6571 173.575 101.689 167.707 115.17C157.777 138.986 132.5 154.265 113.994 156.961H113.542C104.966 159.208 80.592 163.701 71.1132 156.062C70.6618 155.613 69.7591 154.714 68.8563 153.815V144.828C69.3077 144.828 68.8563 144.828 68.8563 144.828Z" fill="#DEB525"/>
<path d="M43.128 117.417C43.128 117.417 43.5794 117.417 43.128 117.417C48.0931 116.967 58.4747 116.967 62.9884 116.967C76.5296 117.417 91.425 111.125 91.8763 111.125C93.2305 110.676 94.5846 109.777 95.9387 109.328C104.966 105.284 110.383 101.689 118.959 95.3975C123.021 92.252 127.083 88.657 129.792 85.9608L130.243 85.5115C131.146 84.6127 137.465 77.4228 143.784 67.5368C144.236 66.638 144.236 66.1887 144.236 65.2899C144.236 64.3912 143.784 63.9418 142.882 63.4925C141.979 63.0431 141.527 63.0431 140.625 63.0431C139.722 63.0431 139.271 63.4925 138.819 64.3912C132.951 73.3785 126.632 80.5684 125.729 81.4672C122.57 84.6127 118.959 87.7583 115.348 90.4545C105.869 97.6444 100.904 100.79 89.6195 105.284C89.6195 105.284 75.6269 111.125 63.4398 110.676C58.4747 110.676 48.0931 110.676 43.128 111.125C42.2253 111.125 41.3225 111.575 40.8711 112.473C40.4198 112.923 39.9684 113.822 39.9684 114.72C40.4198 116.068 41.7739 117.417 43.128 117.417Z" fill="#DEB525"/>
<path d="M96.8415 74.2774C97.2929 74.2774 97.7442 74.2774 98.647 73.828C99.5497 73.3786 100.904 72.4799 102.258 72.0305C105.869 69.7837 109.029 68.885 115.799 63.4925C116.251 63.0432 116.702 62.1444 117.153 61.2457C117.153 60.347 117.153 59.4482 116.251 58.9989C115.799 58.5495 114.896 58.1001 113.994 57.6508C113.091 57.6508 112.188 57.6508 111.737 58.5495C105.418 63.9419 102.709 64.8406 99.0983 66.6381C97.7442 67.5368 96.3901 67.9862 95.036 68.8849C93.6819 69.7837 93.2305 72.0305 94.1332 73.3786C94.5846 73.828 95.4874 74.7267 96.8415 74.2774Z" fill="#DEB525"/>
<path d="M19.6568 75.6253C17.8513 76.0747 16.9486 77.8722 17.3999 79.2203C17.3999 80.119 17.8513 80.5684 18.7541 81.0177C19.2054 81.4671 19.6568 81.4671 20.1082 81.4671C20.5595 81.4671 21.0109 81.4671 21.4623 81.4671C33.198 79.2203 47.1906 81.9165 47.1906 81.9165C51.7043 82.3658 57.5722 82.8152 62.9887 82.8152C70.2106 82.8152 76.9812 81.9165 82.8491 80.5684C83.3005 80.5684 83.7518 80.119 84.2032 80.119C84.2032 80.119 84.2032 79.6696 84.6546 79.6696L85.106 79.2203V78.7709V78.3215C85.106 77.8722 85.106 77.4228 85.106 76.9734C85.106 76.5241 84.6546 76.0747 84.6546 75.6253C84.6546 75.176 84.2032 75.176 83.7518 74.7266C83.3005 74.7266 82.8491 74.2772 82.8491 74.2772C82.3977 74.2772 81.9463 74.2772 81.495 74.2772C69.3079 77.4228 54.8639 76.5241 48.5447 75.6253C46.7392 75.6253 32.2953 72.9291 19.6568 75.6253Z" fill="#DEB525"/>
<path d="M81.9463 151.568C82.849 151.568 83.7518 151.568 85.1059 151.568C102.258 151.568 134.757 146.625 156.874 112.024C157.326 111.575 164.548 101.239 166.805 85.5114C166.805 84.6127 166.804 83.714 166.353 83.2646C165.902 82.3659 164.999 81.9165 164.096 81.9165C163.194 81.9165 162.291 81.9165 161.839 82.3659C160.937 82.8152 160.485 83.714 160.485 84.6127C158.68 98.5431 151.909 107.98 151.909 108.429C129.34 143.03 95.9389 145.277 82.3977 144.828C80.5922 144.828 79.238 146.176 79.238 147.973C79.238 148.872 79.6894 149.771 80.1408 150.22C80.5922 151.119 81.4949 151.568 81.9463 151.568Z" fill="#DEB525"/>
</svg>
