<svg width="111" height="27" viewBox="0 0 111 27" fill="none" xmlns="http://www.w3.org/2000/svg">
<rect width="111" height="27" rx="7" fill="#3CA369"/>
<path d="M10.602 13.114C10.602 12.162 10.8167 11.308 11.246 10.552C11.6753 9.78667 12.2587 9.18933 12.996 8.76C13.7427 8.33067 14.5687 8.116 15.474 8.116C16.538 8.116 17.4667 8.37267 18.26 8.886C19.0533 9.39933 19.632 10.1273 19.996 11.07H18.47C18.1993 10.482 17.8073 10.0293 17.294 9.712C16.79 9.39467 16.1833 9.236 15.474 9.236C14.7927 9.236 14.1813 9.39467 13.64 9.712C13.0987 10.0293 12.674 10.482 12.366 11.07C12.058 11.6487 11.904 12.33 11.904 13.114C11.904 13.8887 12.058 14.57 12.366 15.158C12.674 15.7367 13.0987 16.1847 13.64 16.502C14.1813 16.8193 14.7927 16.978 15.474 16.978C16.1833 16.978 16.79 16.824 17.294 16.516C17.8073 16.1987 18.1993 15.746 18.47 15.158H19.996C19.632 16.0913 19.0533 16.8147 18.26 17.328C17.4667 17.832 16.538 18.084 15.474 18.084C14.5687 18.084 13.7427 17.874 12.996 17.454C12.2587 17.0247 11.6753 16.432 11.246 15.676C10.8167 14.92 10.602 14.066 10.602 13.114ZM25.2385 18.126C24.5198 18.126 23.8665 17.9627 23.2785 17.636C22.6998 17.3093 22.2425 16.8473 21.9065 16.25C21.5798 15.6433 21.4165 14.9433 21.4165 14.15C21.4165 13.366 21.5845 12.6753 21.9205 12.078C22.2658 11.4713 22.7325 11.0093 23.3205 10.692C23.9085 10.3653 24.5665 10.202 25.2945 10.202C26.0225 10.202 26.6805 10.3653 27.2685 10.692C27.8565 11.0093 28.3185 11.4667 28.6545 12.064C28.9998 12.6613 29.1725 13.3567 29.1725 14.15C29.1725 14.9433 28.9951 15.6433 28.6405 16.25C28.2951 16.8473 27.8238 17.3093 27.2265 17.636C26.6291 17.9627 25.9665 18.126 25.2385 18.126ZM25.2385 17.006C25.6958 17.006 26.1251 16.8987 26.5265 16.684C26.9278 16.4693 27.2498 16.1473 27.4925 15.718C27.7445 15.2887 27.8705 14.766 27.8705 14.15C27.8705 13.534 27.7491 13.0113 27.5065 12.582C27.2638 12.1527 26.9465 11.8353 26.5545 11.63C26.1625 11.4153 25.7378 11.308 25.2805 11.308C24.8138 11.308 24.3845 11.4153 23.9925 11.63C23.6098 11.8353 23.3018 12.1527 23.0685 12.582C22.8351 13.0113 22.7185 13.534 22.7185 14.15C22.7185 14.7753 22.8305 15.3027 23.0545 15.732C23.2878 16.1613 23.5958 16.4833 23.9785 16.698C24.3611 16.9033 24.7811 17.006 25.2385 17.006ZM40.0735 10.188C40.6709 10.188 41.2029 10.314 41.6695 10.566C42.1362 10.8087 42.5049 11.1773 42.7755 11.672C43.0462 12.1667 43.1815 12.7687 43.1815 13.478V18H41.9215V13.66C41.9215 12.8947 41.7302 12.3113 41.3475 11.91C40.9742 11.4993 40.4655 11.294 39.8215 11.294C39.1589 11.294 38.6315 11.5087 38.2395 11.938C37.8475 12.358 37.6515 12.9693 37.6515 13.772V18H36.3915V13.66C36.3915 12.8947 36.2002 12.3113 35.8175 11.91C35.4442 11.4993 34.9355 11.294 34.2915 11.294C33.6289 11.294 33.1015 11.5087 32.7095 11.938C32.3175 12.358 32.1215 12.9693 32.1215 13.772V18H30.8475V10.328H32.1215V11.434C32.3735 11.0327 32.7095 10.7247 33.1295 10.51C33.5589 10.2953 34.0302 10.188 34.5435 10.188C35.1875 10.188 35.7569 10.3327 36.2515 10.622C36.7462 10.9113 37.1149 11.336 37.3575 11.896C37.5722 11.3547 37.9269 10.9347 38.4215 10.636C38.9162 10.3373 39.4669 10.188 40.0735 10.188ZM46.5454 11.742C46.7974 11.3033 47.1707 10.9393 47.6654 10.65C48.1694 10.3513 48.7527 10.202 49.4154 10.202C50.0967 10.202 50.7127 10.3653 51.2634 10.692C51.8234 11.0187 52.262 11.4807 52.5794 12.078C52.8967 12.666 53.0554 13.352 53.0554 14.136C53.0554 14.9107 52.8967 15.6013 52.5794 16.208C52.262 16.8147 51.8234 17.286 51.2634 17.622C50.7127 17.958 50.0967 18.126 49.4154 18.126C48.762 18.126 48.1834 17.9813 47.6794 17.692C47.1847 17.3933 46.8067 17.0247 46.5454 16.586V21.64H45.2714V10.328H46.5454V11.742ZM51.7534 14.136C51.7534 13.5573 51.6367 13.0533 51.4034 12.624C51.17 12.1947 50.8527 11.868 50.4514 11.644C50.0594 11.42 49.6254 11.308 49.1494 11.308C48.6827 11.308 48.2487 11.4247 47.8474 11.658C47.4554 11.882 47.138 12.2133 46.8954 12.652C46.662 13.0813 46.5454 13.5807 46.5454 14.15C46.5454 14.7287 46.662 15.2373 46.8954 15.676C47.138 16.1053 47.4554 16.4367 47.8474 16.67C48.2487 16.894 48.6827 17.006 49.1494 17.006C49.6254 17.006 50.0594 16.894 50.4514 16.67C50.8527 16.4367 51.17 16.1053 51.4034 15.676C51.6367 15.2373 51.7534 14.724 51.7534 14.136ZM56.0063 7.64V18H54.7323V7.64H56.0063ZM65.1776 13.87C65.1776 14.1127 65.1636 14.3693 65.1356 14.64H59.0036C59.0503 15.396 59.3069 15.9887 59.7736 16.418C60.2496 16.838 60.8236 17.048 61.4956 17.048C62.0463 17.048 62.5036 16.922 62.8676 16.67C63.2409 16.4087 63.5023 16.0633 63.6516 15.634H65.0236C64.8183 16.3713 64.4076 16.9733 63.7916 17.44C63.1756 17.8973 62.4103 18.126 61.4956 18.126C60.7676 18.126 60.1143 17.9627 59.5356 17.636C58.9663 17.3093 58.5183 16.8473 58.1916 16.25C57.8649 15.6433 57.7016 14.9433 57.7016 14.15C57.7016 13.3567 57.8603 12.6613 58.1776 12.064C58.4949 11.4667 58.9383 11.0093 59.5076 10.692C60.0863 10.3653 60.7489 10.202 61.4956 10.202C62.2236 10.202 62.8676 10.3607 63.4276 10.678C63.9876 10.9953 64.4169 11.434 64.7156 11.994C65.0236 12.5447 65.1776 13.17 65.1776 13.87ZM63.8616 13.604C63.8616 13.1187 63.7543 12.7033 63.5396 12.358C63.3249 12.0033 63.0309 11.7373 62.6576 11.56C62.2936 11.3733 61.8876 11.28 61.4396 11.28C60.7956 11.28 60.2449 11.4853 59.7876 11.896C59.3396 12.3067 59.0829 12.876 59.0176 13.604H63.8616ZM68.4133 11.378V15.9C68.4133 16.2733 68.4926 16.5393 68.6513 16.698C68.8099 16.8473 69.0853 16.922 69.4772 16.922H70.4153V18H69.2673C68.5579 18 68.0259 17.8367 67.6713 17.51C67.3166 17.1833 67.1393 16.6467 67.1393 15.9V11.378H66.1453V10.328H67.1393V8.396H68.4133V10.328H70.4153V11.378H68.4133ZM78.9589 13.87C78.9589 14.1127 78.9449 14.3693 78.9169 14.64H72.7849C72.8315 15.396 73.0882 15.9887 73.5549 16.418C74.0309 16.838 74.6049 17.048 75.2769 17.048C75.8275 17.048 76.2849 16.922 76.6489 16.67C77.0222 16.4087 77.2835 16.0633 77.4329 15.634H78.8049C78.5995 16.3713 78.1889 16.9733 77.5729 17.44C76.9569 17.8973 76.1915 18.126 75.2769 18.126C74.5489 18.126 73.8955 17.9627 73.3169 17.636C72.7475 17.3093 72.2995 16.8473 71.9729 16.25C71.6462 15.6433 71.4829 14.9433 71.4829 14.15C71.4829 13.3567 71.6415 12.6613 71.9589 12.064C72.2762 11.4667 72.7195 11.0093 73.2889 10.692C73.8675 10.3653 74.5302 10.202 75.2769 10.202C76.0049 10.202 76.6489 10.3607 77.2089 10.678C77.7689 10.9953 78.1982 11.434 78.4969 11.994C78.8049 12.5447 78.9589 13.17 78.9589 13.87ZM77.6429 13.604C77.6429 13.1187 77.5355 12.7033 77.3209 12.358C77.1062 12.0033 76.8122 11.7373 76.4389 11.56C76.0749 11.3733 75.6689 11.28 75.2209 11.28C74.5769 11.28 74.0262 11.4853 73.5689 11.896C73.1209 12.3067 72.8642 12.876 72.7989 13.604H77.6429Z" fill="#1E1E1E"/>
<circle cx="95.5" cy="13.5" r="5.5" fill="#478562"/>
</svg>
