<svg width="111" height="27" viewBox="0 0 111 27" fill="none" xmlns="http://www.w3.org/2000/svg">
<rect width="111" height="27" rx="7" fill="#FCDE70"/>
<path d="M12.352 8.242V18H11.078V8.242H12.352ZM18.2613 10.188C19.1946 10.188 19.9506 10.4727 20.5293 11.042C21.108 11.602 21.3973 12.414 21.3973 13.478V18H20.1373V13.66C20.1373 12.8947 19.946 12.3113 19.5633 11.91C19.1806 11.4993 18.658 11.294 17.9953 11.294C17.3233 11.294 16.7866 11.504 16.3853 11.924C15.9933 12.344 15.7973 12.9553 15.7973 13.758V18H14.5233V10.328H15.7973V11.42C16.0493 11.028 16.39 10.7247 16.8193 10.51C17.258 10.2953 17.7386 10.188 18.2613 10.188ZM28.4848 11.742C28.7368 11.3033 29.1101 10.9393 29.6048 10.65C30.1088 10.3513 30.6921 10.202 31.3548 10.202C32.0361 10.202 32.6521 10.3653 33.2028 10.692C33.7628 11.0187 34.2015 11.4807 34.5188 12.078C34.8361 12.666 34.9948 13.352 34.9948 14.136C34.9948 14.9107 34.8361 15.6013 34.5188 16.208C34.2015 16.8147 33.7628 17.286 33.2028 17.622C32.6521 17.958 32.0361 18.126 31.3548 18.126C30.7015 18.126 30.1228 17.9813 29.6188 17.692C29.1241 17.3933 28.7461 17.0247 28.4848 16.586V21.64H27.2108V10.328H28.4848V11.742ZM33.6928 14.136C33.6928 13.5573 33.5761 13.0533 33.3428 12.624C33.1095 12.1947 32.7921 11.868 32.3908 11.644C31.9988 11.42 31.5648 11.308 31.0888 11.308C30.6221 11.308 30.1881 11.4247 29.7868 11.658C29.3948 11.882 29.0775 12.2133 28.8348 12.652C28.6015 13.0813 28.4848 13.5807 28.4848 14.15C28.4848 14.7287 28.6015 15.2373 28.8348 15.676C29.0775 16.1053 29.3948 16.4367 29.7868 16.67C30.1881 16.894 30.6221 17.006 31.0888 17.006C31.5648 17.006 31.9988 16.894 32.3908 16.67C32.7921 16.4367 33.1095 16.1053 33.3428 15.676C33.5761 15.2373 33.6928 14.724 33.6928 14.136ZM37.9458 11.574C38.1698 11.1353 38.4871 10.7947 38.8978 10.552C39.3178 10.3093 39.8264 10.188 40.4238 10.188V11.504H40.0878C38.6598 11.504 37.9458 12.2787 37.9458 13.828V18H36.6718V10.328H37.9458V11.574ZM45.2404 18.126C44.5217 18.126 43.8684 17.9627 43.2804 17.636C42.7017 17.3093 42.2444 16.8473 41.9084 16.25C41.5817 15.6433 41.4184 14.9433 41.4184 14.15C41.4184 13.366 41.5864 12.6753 41.9224 12.078C42.2677 11.4713 42.7344 11.0093 43.3224 10.692C43.9104 10.3653 44.5684 10.202 45.2964 10.202C46.0244 10.202 46.6824 10.3653 47.2704 10.692C47.8584 11.0093 48.3204 11.4667 48.6564 12.064C49.0017 12.6613 49.1744 13.3567 49.1744 14.15C49.1744 14.9433 48.9971 15.6433 48.6424 16.25C48.2971 16.8473 47.8257 17.3093 47.2284 17.636C46.6311 17.9627 45.9684 18.126 45.2404 18.126ZM45.2404 17.006C45.6977 17.006 46.1271 16.8987 46.5284 16.684C46.9297 16.4693 47.2517 16.1473 47.4944 15.718C47.7464 15.2887 47.8724 14.766 47.8724 14.15C47.8724 13.534 47.7511 13.0113 47.5084 12.582C47.2657 12.1527 46.9484 11.8353 46.5564 11.63C46.1644 11.4153 45.7397 11.308 45.2824 11.308C44.8157 11.308 44.3864 11.4153 43.9944 11.63C43.6117 11.8353 43.3037 12.1527 43.0704 12.582C42.8371 13.0113 42.7204 13.534 42.7204 14.15C42.7204 14.7753 42.8324 15.3027 43.0564 15.732C43.2897 16.1613 43.5977 16.4833 43.9804 16.698C44.3631 16.9033 44.7831 17.006 45.2404 17.006ZM54.0135 10.202C54.6762 10.202 55.2548 10.3467 55.7495 10.636C56.2535 10.9253 56.6268 11.2893 56.8695 11.728V10.328H58.1575V18.168C58.1575 18.868 58.0082 19.4887 57.7095 20.03C57.4108 20.5807 56.9815 21.01 56.4215 21.318C55.8708 21.626 55.2268 21.78 54.4895 21.78C53.4815 21.78 52.6415 21.542 51.9695 21.066C51.2975 20.59 50.9008 19.9413 50.7795 19.12H52.0395C52.1795 19.5867 52.4688 19.96 52.9075 20.24C53.3462 20.5293 53.8735 20.674 54.4895 20.674C55.1895 20.674 55.7588 20.4547 56.1975 20.016C56.6455 19.5773 56.8695 18.9613 56.8695 18.168V16.558C56.6175 17.006 56.2442 17.3793 55.7495 17.678C55.2548 17.9767 54.6762 18.126 54.0135 18.126C53.3322 18.126 52.7115 17.958 52.1515 17.622C51.6008 17.286 51.1668 16.8147 50.8495 16.208C50.5322 15.6013 50.3735 14.9107 50.3735 14.136C50.3735 13.352 50.5322 12.666 50.8495 12.078C51.1668 11.4807 51.6008 11.0187 52.1515 10.692C52.7115 10.3653 53.3322 10.202 54.0135 10.202ZM56.8695 14.15C56.8695 13.5713 56.7528 13.0673 56.5195 12.638C56.2862 12.2087 55.9688 11.882 55.5675 11.658C55.1755 11.4247 54.7415 11.308 54.2655 11.308C53.7895 11.308 53.3555 11.42 52.9635 11.644C52.5715 11.868 52.2588 12.1947 52.0255 12.624C51.7922 13.0533 51.6755 13.5573 51.6755 14.136C51.6755 14.724 51.7922 15.2373 52.0255 15.676C52.2588 16.1053 52.5715 16.4367 52.9635 16.67C53.3555 16.894 53.7895 17.006 54.2655 17.006C54.7415 17.006 55.1755 16.894 55.5675 16.67C55.9688 16.4367 56.2862 16.1053 56.5195 15.676C56.7528 15.2373 56.8695 14.7287 56.8695 14.15ZM61.5844 11.574C61.8084 11.1353 62.1258 10.7947 62.5364 10.552C62.9564 10.3093 63.4651 10.188 64.0624 10.188V11.504H63.7264C62.2984 11.504 61.5844 12.2787 61.5844 13.828V18H60.3104V10.328H61.5844V11.574ZM72.5331 13.87C72.5331 14.1127 72.5191 14.3693 72.4911 14.64H66.3591C66.4057 15.396 66.6624 15.9887 67.1291 16.418C67.6051 16.838 68.1791 17.048 68.8511 17.048C69.4017 17.048 69.8591 16.922 70.2231 16.67C70.5964 16.4087 70.8577 16.0633 71.0071 15.634H72.3791C72.1737 16.3713 71.7631 16.9733 71.1471 17.44C70.5311 17.8973 69.7657 18.126 68.8511 18.126C68.1231 18.126 67.4697 17.9627 66.8911 17.636C66.3217 17.3093 65.8737 16.8473 65.5471 16.25C65.2204 15.6433 65.0571 14.9433 65.0571 14.15C65.0571 13.3567 65.2157 12.6613 65.5331 12.064C65.8504 11.4667 66.2937 11.0093 66.8631 10.692C67.4417 10.3653 68.1044 10.202 68.8511 10.202C69.5791 10.202 70.2231 10.3607 70.7831 10.678C71.3431 10.9953 71.7724 11.434 72.0711 11.994C72.3791 12.5447 72.5331 13.17 72.5331 13.87ZM71.2171 13.604C71.2171 13.1187 71.1097 12.7033 70.8951 12.358C70.6804 12.0033 70.3864 11.7373 70.0131 11.56C69.6491 11.3733 69.2431 11.28 68.7951 11.28C68.1511 11.28 67.6004 11.4853 67.1431 11.896C66.6951 12.3067 66.4384 12.876 66.3731 13.604H71.2171ZM76.9307 18.126C76.3427 18.126 75.8154 18.028 75.3487 17.832C74.8821 17.6267 74.5134 17.3467 74.2427 16.992C73.9721 16.628 73.8227 16.2127 73.7947 15.746H75.1107C75.1481 16.1287 75.3254 16.4413 75.6427 16.684C75.9694 16.9267 76.3941 17.048 76.9167 17.048C77.4021 17.048 77.7847 16.9407 78.0647 16.726C78.3447 16.5113 78.4847 16.2407 78.4847 15.914C78.4847 15.578 78.3354 15.3307 78.0367 15.172C77.7381 15.004 77.2761 14.8407 76.6507 14.682C76.0814 14.5327 75.6147 14.3833 75.2507 14.234C74.8961 14.0753 74.5881 13.8467 74.3267 13.548C74.0747 13.24 73.9487 12.8387 73.9487 12.344C73.9487 11.952 74.0654 11.5927 74.2987 11.266C74.5321 10.9393 74.8634 10.6827 75.2927 10.496C75.7221 10.3 76.2121 10.202 76.7627 10.202C77.6121 10.202 78.2981 10.4167 78.8207 10.846C79.3434 11.2753 79.6234 11.8633 79.6607 12.61H78.3867C78.3587 12.2087 78.1954 11.8867 77.8967 11.644C77.6074 11.4013 77.2154 11.28 76.7207 11.28C76.2634 11.28 75.8994 11.378 75.6287 11.574C75.3581 11.77 75.2227 12.0267 75.2227 12.344C75.2227 12.596 75.3021 12.806 75.4607 12.974C75.6287 13.1327 75.8341 13.2633 76.0767 13.366C76.3287 13.4593 76.6741 13.5667 77.1127 13.688C77.6634 13.8373 78.1114 13.9867 78.4567 14.136C78.8021 14.276 79.0961 14.4907 79.3387 14.78C79.5907 15.0693 79.7214 15.4473 79.7307 15.914C79.7307 16.334 79.6141 16.712 79.3807 17.048C79.1474 17.384 78.8161 17.65 78.3867 17.846C77.9667 18.0327 77.4814 18.126 76.9307 18.126ZM84.2452 18.126C83.6572 18.126 83.1298 18.028 82.6632 17.832C82.1965 17.6267 81.8278 17.3467 81.5572 16.992C81.2865 16.628 81.1372 16.2127 81.1092 15.746H82.4252C82.4625 16.1287 82.6398 16.4413 82.9572 16.684C83.2838 16.9267 83.7085 17.048 84.2312 17.048C84.7165 17.048 85.0992 16.9407 85.3792 16.726C85.6592 16.5113 85.7992 16.2407 85.7992 15.914C85.7992 15.578 85.6498 15.3307 85.3512 15.172C85.0525 15.004 84.5905 14.8407 83.9652 14.682C83.3958 14.5327 82.9292 14.3833 82.5652 14.234C82.2105 14.0753 81.9025 13.8467 81.6412 13.548C81.3892 13.24 81.2632 12.8387 81.2632 12.344C81.2632 11.952 81.3798 11.5927 81.6132 11.266C81.8465 10.9393 82.1778 10.6827 82.6072 10.496C83.0365 10.3 83.5265 10.202 84.0772 10.202C84.9265 10.202 85.6125 10.4167 86.1352 10.846C86.6578 11.2753 86.9378 11.8633 86.9752 12.61H85.7012C85.6732 12.2087 85.5098 11.8867 85.2112 11.644C84.9218 11.4013 84.5298 11.28 84.0352 11.28C83.5778 11.28 83.2138 11.378 82.9432 11.574C82.6725 11.77 82.5372 12.0267 82.5372 12.344C82.5372 12.596 82.6165 12.806 82.7752 12.974C82.9432 13.1327 83.1485 13.2633 83.3912 13.366C83.6432 13.4593 83.9885 13.5667 84.4272 13.688C84.9778 13.8373 85.4258 13.9867 85.7712 14.136C86.1165 14.276 86.4105 14.4907 86.6532 14.78C86.9052 15.0693 87.0358 15.4473 87.0452 15.914C87.0452 16.334 86.9285 16.712 86.6952 17.048C86.4618 17.384 86.1305 17.65 85.7012 17.846C85.2812 18.0327 84.7958 18.126 84.2452 18.126Z" fill="#1E1E1E"/>
<circle cx="95.5" cy="13.5" r="5.5" fill="#F6C721"/>
</svg>
