<svg width="111" height="27" viewBox="0 0 111 27" fill="none" xmlns="http://www.w3.org/2000/svg">
<rect width="111" height="27" rx="7" fill="#84B5E2"/>
<path d="M16.216 18L13.892 14.01H12.352V18H11.078V8.242H14.228C14.9653 8.242 15.586 8.368 16.09 8.62C16.6033 8.872 16.986 9.21267 17.238 9.642C17.49 10.0713 17.616 10.5613 17.616 11.112C17.616 11.784 17.42 12.3767 17.028 12.89C16.6453 13.4033 16.0667 13.744 15.292 13.912L17.742 18H16.216ZM12.352 12.988H14.228C14.9187 12.988 15.4367 12.82 15.782 12.484C16.1273 12.1387 16.3 11.6813 16.3 11.112C16.3 10.5333 16.1273 10.0853 15.782 9.768C15.446 9.45067 14.928 9.292 14.228 9.292H12.352V12.988ZM26.5956 13.87C26.5956 14.1127 26.5816 14.3693 26.5536 14.64H20.4216C20.4682 15.396 20.7249 15.9887 21.1916 16.418C21.6676 16.838 22.2416 17.048 22.9136 17.048C23.4642 17.048 23.9216 16.922 24.2856 16.67C24.6589 16.4087 24.9202 16.0633 25.0696 15.634H26.4416C26.2362 16.3713 25.8256 16.9733 25.2096 17.44C24.5936 17.8973 23.8282 18.126 22.9136 18.126C22.1856 18.126 21.5322 17.9627 20.9536 17.636C20.3842 17.3093 19.9362 16.8473 19.6096 16.25C19.2829 15.6433 19.1196 14.9433 19.1196 14.15C19.1196 13.3567 19.2782 12.6613 19.5956 12.064C19.9129 11.4667 20.3562 11.0093 20.9256 10.692C21.5042 10.3653 22.1669 10.202 22.9136 10.202C23.6416 10.202 24.2856 10.3607 24.8456 10.678C25.4056 10.9953 25.8349 11.434 26.1336 11.994C26.4416 12.5447 26.5956 13.17 26.5956 13.87ZM25.2796 13.604C25.2796 13.1187 25.1722 12.7033 24.9576 12.358C24.7429 12.0033 24.4489 11.7373 24.0756 11.56C23.7116 11.3733 23.3056 11.28 22.8576 11.28C22.2136 11.28 21.6629 11.4853 21.2056 11.896C20.7576 12.3067 20.5009 12.876 20.4356 13.604H25.2796ZM31.1332 16.824L33.5132 10.328H34.8712L31.8612 18H30.3772L27.3672 10.328H28.7392L31.1332 16.824ZM36.7829 9.082C36.5402 9.082 36.3349 8.998 36.1669 8.83C35.9989 8.662 35.9149 8.45667 35.9149 8.214C35.9149 7.97133 35.9989 7.766 36.1669 7.598C36.3349 7.43 36.5402 7.346 36.7829 7.346C37.0162 7.346 37.2122 7.43 37.3709 7.598C37.5389 7.766 37.6229 7.97133 37.6229 8.214C37.6229 8.45667 37.5389 8.662 37.3709 8.83C37.2122 8.998 37.0162 9.082 36.7829 9.082ZM37.3989 10.328V18H36.1249V10.328H37.3989ZM46.5702 13.87C46.5702 14.1127 46.5562 14.3693 46.5282 14.64H40.3962C40.4429 15.396 40.6995 15.9887 41.1662 16.418C41.6422 16.838 42.2162 17.048 42.8882 17.048C43.4389 17.048 43.8962 16.922 44.2602 16.67C44.6335 16.4087 44.8949 16.0633 45.0442 15.634H46.4162C46.2109 16.3713 45.8002 16.9733 45.1842 17.44C44.5682 17.8973 43.8029 18.126 42.8882 18.126C42.1602 18.126 41.5069 17.9627 40.9282 17.636C40.3589 17.3093 39.9109 16.8473 39.5842 16.25C39.2575 15.6433 39.0942 14.9433 39.0942 14.15C39.0942 13.3567 39.2529 12.6613 39.5702 12.064C39.8875 11.4667 40.3309 11.0093 40.9002 10.692C41.4789 10.3653 42.1415 10.202 42.8882 10.202C43.6162 10.202 44.2602 10.3607 44.8202 10.678C45.3802 10.9953 45.8095 11.434 46.1082 11.994C46.4162 12.5447 46.5702 13.17 46.5702 13.87ZM45.2542 13.604C45.2542 13.1187 45.1469 12.7033 44.9322 12.358C44.7175 12.0033 44.4235 11.7373 44.0502 11.56C43.6862 11.3733 43.2802 11.28 42.8322 11.28C42.1882 11.28 41.6375 11.4853 41.1802 11.896C40.7322 12.3067 40.4755 12.876 40.4102 13.604H45.2542ZM58.4718 10.328L56.0778 18H54.7618L52.9138 11.91L51.0658 18H49.7498L47.3418 10.328H48.6438L50.4078 16.768L52.3118 10.328H53.6138L55.4758 16.782L57.2118 10.328H58.4718Z" fill="#1E1E1E"/>
<g clip-path="url(#clip0_561:1219)">
<path fill-rule="evenodd" clip-rule="evenodd" d="M101 13.5C101 16.8137 98.3137 19.5 95 19.5C91.6863 19.5 89 16.8137 89 13.5C89 10.1863 91.6863 7.5 95 7.5C98.3137 7.5 101 10.1863 101 13.5ZM95.75 11.25C95.75 11.6642 95.4142 12 95 12C94.5858 12 94.25 11.6642 94.25 11.25C94.25 10.8358 94.5858 10.5 95 10.5C95.4142 10.5 95.75 10.8358 95.75 11.25ZM95 12.75C94.5858 12.75 94.25 13.0858 94.25 13.5V15.75C94.25 16.1642 94.5858 16.5 95 16.5C95.4142 16.5 95.75 16.1642 95.75 15.75V13.5C95.75 13.0858 95.4142 12.75 95 12.75Z" fill="#428FDC"/>
</g>
<defs>
<clipPath id="clip0_561:1219">
<rect width="12" height="12" fill="white" transform="translate(89 7.5)"/>
</clipPath>
</defs>
</svg>
