<svg width="70" height="16" viewBox="0 0 70 16" fill="none" xmlns="http://www.w3.org/2000/svg">
<path d="M0.602 8.114C0.602 7.162 0.816667 6.308 1.246 5.552C1.67533 4.78667 2.25867 4.18933 2.996 3.76C3.74267 3.33067 4.56867 3.116 5.474 3.116C6.538 3.116 7.46667 3.37267 8.26 3.886C9.05333 4.39933 9.632 5.12733 9.996 6.07H8.47C8.19933 5.482 7.80733 5.02933 7.294 4.712C6.79 4.39467 6.18333 4.236 5.474 4.236C4.79267 4.236 4.18133 4.39467 3.64 4.712C3.09867 5.02933 2.674 5.482 2.366 6.07C2.058 6.64867 1.904 7.33 1.904 8.114C1.904 8.88867 2.058 9.57 2.366 10.158C2.674 10.7367 3.09867 11.1847 3.64 11.502C4.18133 11.8193 4.79267 11.978 5.474 11.978C6.18333 11.978 6.79 11.824 7.294 11.516C7.80733 11.1987 8.19933 10.746 8.47 10.158H9.996C9.632 11.0913 9.05333 11.8147 8.26 12.328C7.46667 12.832 6.538 13.084 5.474 13.084C4.56867 13.084 3.74267 12.874 2.996 12.454C2.25867 12.0247 1.67533 11.432 1.246 10.676C0.816667 9.92 0.602 9.066 0.602 8.114ZM13.1665 6.574C13.3905 6.13533 13.7078 5.79467 14.1185 5.552C14.5385 5.30933 15.0471 5.188 15.6445 5.188V6.504H15.3085C13.8805 6.504 13.1665 7.27867 13.1665 8.828V13H11.8925V5.328H13.1665V6.574ZM17.7731 4.082C17.5304 4.082 17.3251 3.998 17.1571 3.83C16.9891 3.662 16.9051 3.45667 16.9051 3.214C16.9051 2.97133 16.9891 2.766 17.1571 2.598C17.3251 2.43 17.5304 2.346 17.7731 2.346C18.0064 2.346 18.2024 2.43 18.3611 2.598C18.5291 2.766 18.6131 2.97133 18.6131 3.214C18.6131 3.45667 18.5291 3.662 18.3611 3.83C18.2024 3.998 18.0064 4.082 17.7731 4.082ZM18.3891 5.328V13H17.1151V5.328H18.3891ZM22.1144 6.378V10.9C22.1144 11.2733 22.1938 11.5393 22.3524 11.698C22.5111 11.8473 22.7864 11.922 23.1784 11.922H24.1164V13H22.9684C22.2591 13 21.7271 12.8367 21.3724 12.51C21.0178 12.1833 20.8404 11.6467 20.8404 10.9V6.378H19.8464V5.328H20.8404V3.396H22.1144V5.328H24.1164V6.378H22.1144ZM26.318 4.082C26.0754 4.082 25.87 3.998 25.702 3.83C25.534 3.662 25.45 3.45667 25.45 3.214C25.45 2.97133 25.534 2.766 25.702 2.598C25.87 2.43 26.0754 2.346 26.318 2.346C26.5514 2.346 26.7474 2.43 26.906 2.598C27.074 2.766 27.158 2.97133 27.158 3.214C27.158 3.45667 27.074 3.662 26.906 3.83C26.7474 3.998 26.5514 4.082 26.318 4.082ZM26.934 5.328V13H25.66V5.328H26.934ZM28.6293 9.15C28.6293 8.35667 28.788 7.666 29.1053 7.078C29.4227 6.48067 29.8613 6.01867 30.4213 5.692C30.9907 5.36533 31.6393 5.202 32.3673 5.202C33.31 5.202 34.0847 5.43067 34.6913 5.888C35.3073 6.34533 35.7133 6.98 35.9093 7.792H34.5373C34.4067 7.32533 34.15 6.95667 33.7673 6.686C33.394 6.41533 32.9273 6.28 32.3673 6.28C31.6393 6.28 31.0513 6.532 30.6033 7.036C30.1553 7.53067 29.9313 8.23533 29.9313 9.15C29.9313 10.074 30.1553 10.788 30.6033 11.292C31.0513 11.796 31.6393 12.048 32.3673 12.048C32.9273 12.048 33.394 11.9173 33.7673 11.656C34.1407 11.3947 34.3973 11.0213 34.5373 10.536H35.9093C35.704 11.32 35.2933 11.95 34.6773 12.426C34.0613 12.8927 33.2913 13.126 32.3673 13.126C31.6393 13.126 30.9907 12.9627 30.4213 12.636C29.8613 12.3093 29.4227 11.8473 29.1053 11.25C28.788 10.6527 28.6293 9.95267 28.6293 9.15ZM37.1333 9.136C37.1333 8.352 37.2919 7.666 37.6093 7.078C37.9266 6.48067 38.3606 6.01867 38.9113 5.692C39.4713 5.36533 40.0919 5.202 40.7733 5.202C41.4453 5.202 42.0286 5.34667 42.5233 5.636C43.0179 5.92533 43.3866 6.28933 43.6293 6.728V5.328H44.9173V13H43.6293V11.572C43.3773 12.02 42.9993 12.3933 42.4953 12.692C42.0006 12.9813 41.4219 13.126 40.7593 13.126C40.0779 13.126 39.4619 12.958 38.9113 12.622C38.3606 12.286 37.9266 11.8147 37.6093 11.208C37.2919 10.6013 37.1333 9.91067 37.1333 9.136ZM43.6293 9.15C43.6293 8.57133 43.5126 8.06733 43.2793 7.638C43.0459 7.20867 42.7286 6.882 42.3273 6.658C41.9353 6.42467 41.5013 6.308 41.0253 6.308C40.5493 6.308 40.1153 6.42 39.7233 6.644C39.3313 6.868 39.0186 7.19467 38.7853 7.624C38.5519 8.05333 38.4353 8.55733 38.4353 9.136C38.4353 9.724 38.5519 10.2373 38.7853 10.676C39.0186 11.1053 39.3313 11.4367 39.7233 11.67C40.1153 11.894 40.5493 12.006 41.0253 12.006C41.5013 12.006 41.9353 11.894 42.3273 11.67C42.7286 11.4367 43.0459 11.1053 43.2793 10.676C43.5126 10.2373 43.6293 9.72867 43.6293 9.15ZM48.3442 2.64V13H47.0702V2.64H48.3442Z" fill="#303030"/>
<path d="M63.2908 2.19002C63.7296 1.93666 64.2703 1.93666 64.7091 2.19002L68.6769 4.48085C69.1158 4.73421 69.3861 5.20245 69.3861 5.70917V10.2908C69.3861 10.7976 69.1158 11.2658 68.6769 11.5191L64.7091 13.81C64.2703 14.0633 63.7296 14.0633 63.2908 13.81L59.3229 11.5191C58.8841 11.2658 58.6138 10.7976 58.6138 10.2908V5.70917C58.6138 5.20245 58.8841 4.73421 59.3229 4.48085L63.2908 2.19002Z" fill="#8D1300"/>
</svg>
