<svg width="111" height="27" viewBox="0 0 111 27" fill="none" xmlns="http://www.w3.org/2000/svg">
<rect width="111" height="27" rx="7" fill="#D3BBB7"/>
<path d="M10.602 13.114C10.602 12.162 10.8167 11.308 11.246 10.552C11.6753 9.78667 12.2587 9.18933 12.996 8.76C13.7427 8.33067 14.5687 8.116 15.474 8.116C16.538 8.116 17.4667 8.37267 18.26 8.886C19.0533 9.39933 19.632 10.1273 19.996 11.07H18.47C18.1993 10.482 17.8073 10.0293 17.294 9.712C16.79 9.39467 16.1833 9.236 15.474 9.236C14.7927 9.236 14.1813 9.39467 13.64 9.712C13.0987 10.0293 12.674 10.482 12.366 11.07C12.058 11.6487 11.904 12.33 11.904 13.114C11.904 13.8887 12.058 14.57 12.366 15.158C12.674 15.7367 13.0987 16.1847 13.64 16.502C14.1813 16.8193 14.7927 16.978 15.474 16.978C16.1833 16.978 16.79 16.824 17.294 16.516C17.8073 16.1987 18.1993 15.746 18.47 15.158H19.996C19.632 16.0913 19.0533 16.8147 18.26 17.328C17.4667 17.832 16.538 18.084 15.474 18.084C14.5687 18.084 13.7427 17.874 12.996 17.454C12.2587 17.0247 11.6753 16.432 11.246 15.676C10.8167 14.92 10.602 14.066 10.602 13.114ZM23.1665 11.574C23.3905 11.1353 23.7078 10.7947 24.1185 10.552C24.5385 10.3093 25.0471 10.188 25.6445 10.188V11.504H25.3085C23.8805 11.504 23.1665 12.2787 23.1665 13.828V18H21.8925V10.328H23.1665V11.574ZM27.7731 9.082C27.5304 9.082 27.3251 8.998 27.1571 8.83C26.9891 8.662 26.9051 8.45667 26.9051 8.214C26.9051 7.97133 26.9891 7.766 27.1571 7.598C27.3251 7.43 27.5304 7.346 27.7731 7.346C28.0064 7.346 28.2024 7.43 28.3611 7.598C28.5291 7.766 28.6131 7.97133 28.6131 8.214C28.6131 8.45667 28.5291 8.662 28.3611 8.83C28.2024 8.998 28.0064 9.082 27.7731 9.082ZM28.3891 10.328V18H27.1151V10.328H28.3891ZM32.1144 11.378V15.9C32.1144 16.2733 32.1938 16.5393 32.3524 16.698C32.5111 16.8473 32.7864 16.922 33.1784 16.922H34.1164V18H32.9684C32.2591 18 31.7271 17.8367 31.3724 17.51C31.0178 17.1833 30.8404 16.6467 30.8404 15.9V11.378H29.8464V10.328H30.8404V8.396H32.1144V10.328H34.1164V11.378H32.1144ZM36.318 9.082C36.0754 9.082 35.87 8.998 35.702 8.83C35.534 8.662 35.45 8.45667 35.45 8.214C35.45 7.97133 35.534 7.766 35.702 7.598C35.87 7.43 36.0754 7.346 36.318 7.346C36.5514 7.346 36.7474 7.43 36.906 7.598C37.074 7.766 37.158 7.97133 37.158 8.214C37.158 8.45667 37.074 8.662 36.906 8.83C36.7474 8.998 36.5514 9.082 36.318 9.082ZM36.934 10.328V18H35.66V10.328H36.934ZM38.6293 14.15C38.6293 13.3567 38.788 12.666 39.1053 12.078C39.4227 11.4807 39.8613 11.0187 40.4213 10.692C40.9907 10.3653 41.6393 10.202 42.3673 10.202C43.31 10.202 44.0847 10.4307 44.6913 10.888C45.3073 11.3453 45.7133 11.98 45.9093 12.792H44.5373C44.4067 12.3253 44.15 11.9567 43.7673 11.686C43.394 11.4153 42.9273 11.28 42.3673 11.28C41.6393 11.28 41.0513 11.532 40.6033 12.036C40.1553 12.5307 39.9313 13.2353 39.9313 14.15C39.9313 15.074 40.1553 15.788 40.6033 16.292C41.0513 16.796 41.6393 17.048 42.3673 17.048C42.9273 17.048 43.394 16.9173 43.7673 16.656C44.1407 16.3947 44.3973 16.0213 44.5373 15.536H45.9093C45.704 16.32 45.2933 16.95 44.6773 17.426C44.0613 17.8927 43.2913 18.126 42.3673 18.126C41.6393 18.126 40.9907 17.9627 40.4213 17.636C39.8613 17.3093 39.4227 16.8473 39.1053 16.25C38.788 15.6527 38.6293 14.9527 38.6293 14.15ZM47.1333 14.136C47.1333 13.352 47.2919 12.666 47.6093 12.078C47.9266 11.4807 48.3606 11.0187 48.9113 10.692C49.4713 10.3653 50.0919 10.202 50.7733 10.202C51.4453 10.202 52.0286 10.3467 52.5233 10.636C53.0179 10.9253 53.3866 11.2893 53.6293 11.728V10.328H54.9173V18H53.6293V16.572C53.3773 17.02 52.9993 17.3933 52.4953 17.692C52.0006 17.9813 51.4219 18.126 50.7593 18.126C50.0779 18.126 49.4619 17.958 48.9113 17.622C48.3606 17.286 47.9266 16.8147 47.6093 16.208C47.2919 15.6013 47.1333 14.9107 47.1333 14.136ZM53.6293 14.15C53.6293 13.5713 53.5126 13.0673 53.2793 12.638C53.0459 12.2087 52.7286 11.882 52.3273 11.658C51.9353 11.4247 51.5013 11.308 51.0253 11.308C50.5493 11.308 50.1153 11.42 49.7233 11.644C49.3313 11.868 49.0186 12.1947 48.7853 12.624C48.5519 13.0533 48.4353 13.5573 48.4353 14.136C48.4353 14.724 48.5519 15.2373 48.7853 15.676C49.0186 16.1053 49.3313 16.4367 49.7233 16.67C50.1153 16.894 50.5493 17.006 51.0253 17.006C51.5013 17.006 51.9353 16.894 52.3273 16.67C52.7286 16.4367 53.0459 16.1053 53.2793 15.676C53.5126 15.2373 53.6293 14.7287 53.6293 14.15ZM58.3442 7.64V18H57.0702V7.64H58.3442Z" fill="#1E1E1E"/>
<g clip-path="url(#clip0)">
<path d="M94.2908 7.69002C94.7296 7.43666 95.2703 7.43666 95.7091 7.69002L99.6769 9.98085C100.116 10.2342 100.386 10.7024 100.386 11.2092V15.7908C100.386 16.2976 100.116 16.7658 99.6769 17.0191L95.7091 19.31C95.2703 19.5633 94.7296 19.5633 94.2908 19.31L90.3229 17.0191C89.8841 16.7658 89.6138 16.2976 89.6138 15.7908V11.2092C89.6138 10.7024 89.8841 10.2342 90.3229 9.98085L94.2908 7.69002Z" fill="#8D1300"/>
</g>
<defs>
<clipPath id="clip0">
<rect width="12" height="12" fill="white" transform="translate(89 7.5)"/>
</clipPath>
</defs>
</svg>
