<svg width="52" height="17" viewBox="0 0 52 17" fill="none" xmlns="http://www.w3.org/2000/svg">
<path d="M8.596 3.242V13H7.322V8.576H2.352V13H1.078V3.242H2.352V7.526H7.322V3.242H8.596ZM11.4294 4.082C11.1867 4.082 10.9814 3.998 10.8134 3.83C10.6454 3.662 10.5614 3.45667 10.5614 3.214C10.5614 2.97133 10.6454 2.766 10.8134 2.598C10.9814 2.43 11.1867 2.346 11.4294 2.346C11.6627 2.346 11.8587 2.43 12.0174 2.598C12.1854 2.766 12.2694 2.97133 12.2694 3.214C12.2694 3.45667 12.1854 3.662 12.0174 3.83C11.8587 3.998 11.6627 4.082 11.4294 4.082ZM12.0454 5.328V13H10.7714V5.328H12.0454ZM17.3807 5.202C18.0433 5.202 18.622 5.34667 19.1167 5.636C19.6207 5.92533 19.994 6.28933 20.2367 6.728V5.328H21.5247V13.168C21.5247 13.868 21.3753 14.4887 21.0767 15.03C20.778 15.5807 20.3487 16.01 19.7887 16.318C19.238 16.626 18.594 16.78 17.8567 16.78C16.8487 16.78 16.0087 16.542 15.3367 16.066C14.6647 15.59 14.268 14.9413 14.1467 14.12H15.4067C15.5467 14.5867 15.836 14.96 16.2747 15.24C16.7133 15.5293 17.2407 15.674 17.8567 15.674C18.5567 15.674 19.126 15.4547 19.5647 15.016C20.0127 14.5773 20.2367 13.9613 20.2367 13.168V11.558C19.9847 12.006 19.6113 12.3793 19.1167 12.678C18.622 12.9767 18.0433 13.126 17.3807 13.126C16.6993 13.126 16.0787 12.958 15.5187 12.622C14.968 12.286 14.534 11.8147 14.2167 11.208C13.8993 10.6013 13.7407 9.91067 13.7407 9.136C13.7407 8.352 13.8993 7.666 14.2167 7.078C14.534 6.48067 14.968 6.01867 15.5187 5.692C16.0787 5.36533 16.6993 5.202 17.3807 5.202ZM20.2367 9.15C20.2367 8.57133 20.12 8.06733 19.8867 7.638C19.6533 7.20867 19.336 6.882 18.9347 6.658C18.5427 6.42467 18.1087 6.308 17.6327 6.308C17.1567 6.308 16.7227 6.42 16.3307 6.644C15.9387 6.868 15.626 7.19467 15.3927 7.624C15.1593 8.05333 15.0427 8.55733 15.0427 9.136C15.0427 9.724 15.1593 10.2373 15.3927 10.676C15.626 11.1053 15.9387 11.4367 16.3307 11.67C16.7227 11.894 17.1567 12.006 17.6327 12.006C18.1087 12.006 18.5427 11.894 18.9347 11.67C19.336 11.4367 19.6533 11.1053 19.8867 10.676C20.12 10.2373 20.2367 9.72867 20.2367 9.15ZM27.4856 5.188C28.0643 5.188 28.5869 5.314 29.0536 5.566C29.5203 5.80867 29.8843 6.17733 30.1456 6.672C30.4163 7.16667 30.5516 7.76867 30.5516 8.478V13H29.2916V8.66C29.2916 7.89467 29.1003 7.31133 28.7176 6.91C28.3349 6.49933 27.8123 6.294 27.1496 6.294C26.4776 6.294 25.9409 6.504 25.5396 6.924C25.1476 7.344 24.9516 7.95533 24.9516 8.758V13H23.6776V2.64H24.9516V6.42C25.2036 6.028 25.5489 5.72467 25.9876 5.51C26.4356 5.29533 26.9349 5.188 27.4856 5.188Z" fill="#303030"/>
<path d="M40.3875 8.93542C39.8708 8.4188 39.8708 7.5812 40.3875 7.06458L45.0646 2.38746C45.5812 1.87085 46.4188 1.87085 46.9354 2.38746L51.6125 7.06458C52.1292 7.5812 52.1292 8.4188 51.6125 8.93542L46.9354 13.6125C46.4188 14.1292 45.5812 14.1292 45.0646 13.6125L40.3875 8.93542Z" fill="#C91C00"/>
</svg>
