<svg width="46" height="16" viewBox="0 0 46 16" fill="none" xmlns="http://www.w3.org/2000/svg">
<path d="M2.352 3.242V13H1.078V3.242H2.352ZM8.26131 5.188C9.19465 5.188 9.95065 5.47267 10.5293 6.042C11.108 6.602 11.3973 7.414 11.3973 8.478V13H10.1373V8.66C10.1373 7.89467 9.94598 7.31133 9.56331 6.91C9.18065 6.49933 8.65798 6.294 7.99531 6.294C7.32331 6.294 6.78665 6.504 6.38531 6.924C5.99331 7.344 5.79731 7.95533 5.79731 8.758V13H4.52331V5.328H5.79731V6.42C6.04931 6.028 6.38998 5.72467 6.81931 5.51C7.25798 5.29533 7.73865 5.188 8.26131 5.188ZM16.6004 6.378H14.9904V13H13.7164V6.378H12.7224V5.328H13.7164V4.782C13.7164 3.92333 13.9357 3.298 14.3744 2.906C14.8224 2.50467 15.5364 2.304 16.5164 2.304V3.368C15.9564 3.368 15.5597 3.48 15.3264 3.704C15.1024 3.91867 14.9904 4.278 14.9904 4.782V5.328H16.6004V6.378ZM21.4318 13.126C20.7131 13.126 20.0598 12.9627 19.4718 12.636C18.8931 12.3093 18.4358 11.8473 18.0998 11.25C17.7731 10.6433 17.6098 9.94333 17.6098 9.15C17.6098 8.366 17.7778 7.67533 18.1138 7.078C18.4591 6.47133 18.9258 6.00933 19.5138 5.692C20.1018 5.36533 20.7598 5.202 21.4878 5.202C22.2158 5.202 22.8738 5.36533 23.4618 5.692C24.0498 6.00933 24.5118 6.46667 24.8478 7.064C25.1931 7.66133 25.3658 8.35667 25.3658 9.15C25.3658 9.94333 25.1885 10.6433 24.8338 11.25C24.4885 11.8473 24.0171 12.3093 23.4198 12.636C22.8225 12.9627 22.1598 13.126 21.4318 13.126ZM21.4318 12.006C21.8891 12.006 22.3185 11.8987 22.7198 11.684C23.1211 11.4693 23.4431 11.1473 23.6858 10.718C23.9378 10.2887 24.0638 9.766 24.0638 9.15C24.0638 8.534 23.9425 8.01133 23.6998 7.582C23.4571 7.15267 23.1398 6.83533 22.7478 6.63C22.3558 6.41533 21.9311 6.308 21.4738 6.308C21.0071 6.308 20.5778 6.41533 20.1858 6.63C19.8031 6.83533 19.4951 7.15267 19.2618 7.582C19.0285 8.01133 18.9118 8.534 18.9118 9.15C18.9118 9.77533 19.0238 10.3027 19.2478 10.732C19.4811 11.1613 19.7891 11.4833 20.1718 11.698C20.5545 11.9033 20.9745 12.006 21.4318 12.006Z" fill="#303030"/>
<path fill-rule="evenodd" clip-rule="evenodd" d="M46 8C46 11.3137 43.3137 14 40 14C36.6863 14 34 11.3137 34 8C34 4.68629 36.6863 2 40 2C43.3137 2 46 4.68629 46 8ZM40.75 5.75C40.75 6.16421 40.4142 6.5 40 6.5C39.5858 6.5 39.25 6.16421 39.25 5.75C39.25 5.33579 39.5858 5 40 5C40.4142 5 40.75 5.33579 40.75 5.75ZM40 7.25C39.5858 7.25 39.25 7.58579 39.25 8V10.25C39.25 10.6642 39.5858 11 40 11C40.4142 11 40.75 10.6642 40.75 10.25V8C40.75 7.58579 40.4142 7.25 40 7.25Z" fill="#428FDC"/>
</svg>
