<svg width="47" height="16" viewBox="0 0 47 16" fill="none" xmlns="http://www.w3.org/2000/svg">
<path d="M2.352 11.964H5.768V13H1.078V3.242H2.352V11.964ZM10.467 13.126C9.7483 13.126 9.09497 12.9627 8.50697 12.636C7.9283 12.3093 7.47097 11.8473 7.13497 11.25C6.8083 10.6433 6.64497 9.94333 6.64497 9.15C6.64497 8.366 6.81297 7.67533 7.14897 7.078C7.4943 6.47133 7.96097 6.00933 8.54897 5.692C9.13697 5.36533 9.79497 5.202 10.523 5.202C11.251 5.202 11.909 5.36533 12.497 5.692C13.085 6.00933 13.547 6.46667 13.883 7.064C14.2283 7.66133 14.401 8.35667 14.401 9.15C14.401 9.94333 14.2236 10.6433 13.869 11.25C13.5236 11.8473 13.0523 12.3093 12.455 12.636C11.8576 12.9627 11.195 13.126 10.467 13.126ZM10.467 12.006C10.9243 12.006 11.3536 11.8987 11.755 11.684C12.1563 11.4693 12.4783 11.1473 12.721 10.718C12.973 10.2887 13.099 9.766 13.099 9.15C13.099 8.534 12.9776 8.01133 12.735 7.582C12.4923 7.15267 12.175 6.83533 11.783 6.63C11.391 6.41533 10.9663 6.308 10.509 6.308C10.0423 6.308 9.61297 6.41533 9.22097 6.63C8.8383 6.83533 8.5303 7.15267 8.29697 7.582C8.06364 8.01133 7.94697 8.534 7.94697 9.15C7.94697 9.77533 8.05897 10.3027 8.28297 10.732C8.5163 11.1613 8.8243 11.4833 9.20697 11.698C9.58964 11.9033 10.0096 12.006 10.467 12.006ZM26.296 5.328L23.902 13H22.586L20.738 6.91L18.89 13H17.574L15.166 5.328H16.468L18.232 11.768L20.136 5.328H21.438L23.3 11.782L25.036 5.328H26.296Z" fill="#303030"/>
<circle cx="41" cy="8" r="6" fill="#D99530"/>
</svg>
