<svg width="78" height="16" viewBox="0 0 78 16" fill="none" xmlns="http://www.w3.org/2000/svg">
<path d="M10.976 3.312V13H9.702V5.776L6.482 13H5.586L2.352 5.762V13H1.078V3.312H2.45L6.034 11.32L9.618 3.312H10.976ZM20.1366 8.87C20.1366 9.11267 20.1226 9.36933 20.0946 9.64H13.9626C14.0093 10.396 14.2659 10.9887 14.7326 11.418C15.2086 11.838 15.7826 12.048 16.4546 12.048C17.0053 12.048 17.4626 11.922 17.8266 11.67C18.1999 11.4087 18.4613 11.0633 18.6106 10.634H19.9826C19.7773 11.3713 19.3666 11.9733 18.7506 12.44C18.1346 12.8973 17.3693 13.126 16.4546 13.126C15.7266 13.126 15.0733 12.9627 14.4946 12.636C13.9253 12.3093 13.4773 11.8473 13.1506 11.25C12.8239 10.6433 12.6606 9.94333 12.6606 9.15C12.6606 8.35667 12.8193 7.66133 13.1366 7.064C13.4539 6.46667 13.8973 6.00933 14.4666 5.692C15.0453 5.36533 15.7079 5.202 16.4546 5.202C17.1826 5.202 17.8266 5.36067 18.3866 5.678C18.9466 5.99533 19.3759 6.434 19.6746 6.994C19.9826 7.54467 20.1366 8.17 20.1366 8.87ZM18.8206 8.604C18.8206 8.11867 18.7133 7.70333 18.4986 7.358C18.2839 7.00333 17.9899 6.73733 17.6166 6.56C17.2526 6.37333 16.8466 6.28 16.3986 6.28C15.7546 6.28 15.2039 6.48533 14.7466 6.896C14.2986 7.30667 14.0419 7.876 13.9766 8.604H18.8206ZM21.3422 9.136C21.3422 8.352 21.5009 7.666 21.8182 7.078C22.1356 6.48067 22.5696 6.01867 23.1202 5.692C23.6802 5.36533 24.3056 5.202 24.9962 5.202C25.5936 5.202 26.1489 5.342 26.6622 5.622C27.1756 5.89267 27.5676 6.252 27.8382 6.7V2.64H29.1262V13H27.8382V11.558C27.5862 12.0153 27.2129 12.3933 26.7182 12.692C26.2236 12.9813 25.6449 13.126 24.9822 13.126C24.3009 13.126 23.6802 12.958 23.1202 12.622C22.5696 12.286 22.1356 11.8147 21.8182 11.208C21.5009 10.6013 21.3422 9.91067 21.3422 9.136ZM27.8382 9.15C27.8382 8.57133 27.7216 8.06733 27.4882 7.638C27.2549 7.20867 26.9376 6.882 26.5362 6.658C26.1442 6.42467 25.7102 6.308 25.2342 6.308C24.7582 6.308 24.3242 6.42 23.9322 6.644C23.5402 6.868 23.2276 7.19467 22.9942 7.624C22.7609 8.05333 22.6442 8.55733 22.6442 9.136C22.6442 9.724 22.7609 10.2373 22.9942 10.676C23.2276 11.1053 23.5402 11.4367 23.9322 11.67C24.3242 11.894 24.7582 12.006 25.2342 12.006C25.7102 12.006 26.1442 11.894 26.5362 11.67C26.9376 11.4367 27.2549 11.1053 27.4882 10.676C27.7216 10.2373 27.8382 9.72867 27.8382 9.15ZM31.9372 4.082C31.6945 4.082 31.4892 3.998 31.3212 3.83C31.1532 3.662 31.0692 3.45667 31.0692 3.214C31.0692 2.97133 31.1532 2.766 31.3212 2.598C31.4892 2.43 31.6945 2.346 31.9372 2.346C32.1705 2.346 32.3665 2.43 32.5252 2.598C32.6932 2.766 32.7772 2.97133 32.7772 3.214C32.7772 3.45667 32.6932 3.662 32.5252 3.83C32.3665 3.998 32.1705 4.082 31.9372 4.082ZM32.5532 5.328V13H31.2792V5.328H32.5532ZM41.5285 5.328V13H40.2545V11.866C40.0118 12.258 39.6712 12.566 39.2325 12.79C38.8032 13.0047 38.3272 13.112 37.8045 13.112C37.2072 13.112 36.6705 12.9907 36.1945 12.748C35.7185 12.496 35.3405 12.1227 35.0605 11.628C34.7898 11.1333 34.6545 10.5313 34.6545 9.822V5.328H35.9145V9.654C35.9145 10.41 36.1058 10.9933 36.4885 11.404C36.8712 11.8053 37.3938 12.006 38.0565 12.006C38.7378 12.006 39.2745 11.796 39.6665 11.376C40.0585 10.956 40.2545 10.3447 40.2545 9.542V5.328H41.5285ZM52.9056 5.188C53.5029 5.188 54.0349 5.314 54.5016 5.566C54.9682 5.80867 55.3369 6.17733 55.6076 6.672C55.8782 7.16667 56.0136 7.76867 56.0136 8.478V13H54.7536V8.66C54.7536 7.89467 54.5622 7.31133 54.1796 6.91C53.8062 6.49933 53.2976 6.294 52.6536 6.294C51.9909 6.294 51.4636 6.50867 51.0716 6.938C50.6796 7.358 50.4836 7.96933 50.4836 8.772V13H49.2236V8.66C49.2236 7.89467 49.0322 7.31133 48.6496 6.91C48.2762 6.49933 47.7676 6.294 47.1236 6.294C46.4609 6.294 45.9336 6.50867 45.5416 6.938C45.1496 7.358 44.9536 7.96933 44.9536 8.772V13H43.6796V5.328H44.9536V6.434C45.2056 6.03267 45.5416 5.72467 45.9616 5.51C46.3909 5.29533 46.8622 5.188 47.3756 5.188C48.0196 5.188 48.5889 5.33267 49.0836 5.622C49.5782 5.91133 49.9469 6.336 50.1896 6.896C50.4042 6.35467 50.7589 5.93467 51.2536 5.636C51.7482 5.33733 52.2989 5.188 52.9056 5.188Z" fill="#303030"/>
<path d="M73.2229 12.6774C72.6794 13.6188 71.3206 13.6188 70.7771 12.6774L66.1913 4.73456C65.6478 3.79318 66.3272 2.61645 67.4142 2.61645L76.5859 2.61646C77.6729 2.61646 78.3522 3.79318 77.8087 4.73456L73.2229 12.6774Z" fill="#E17223"/>
</svg>
