<svg width="111" height="27" viewBox="0 0 111 27" fill="none" xmlns="http://www.w3.org/2000/svg">
<rect width="111" height="27" rx="7" fill="#E4CEBE"/>
<path d="M20.976 8.312V18H19.702V10.776L16.482 18H15.586L12.352 10.762V18H11.078V8.312H12.45L16.034 16.32L19.618 8.312H20.976ZM30.1366 13.87C30.1366 14.1127 30.1226 14.3693 30.0946 14.64H23.9626C24.0093 15.396 24.2659 15.9887 24.7326 16.418C25.2086 16.838 25.7826 17.048 26.4546 17.048C27.0053 17.048 27.4626 16.922 27.8266 16.67C28.1999 16.4087 28.4613 16.0633 28.6106 15.634H29.9826C29.7773 16.3713 29.3666 16.9733 28.7506 17.44C28.1346 17.8973 27.3693 18.126 26.4546 18.126C25.7266 18.126 25.0733 17.9627 24.4946 17.636C23.9253 17.3093 23.4773 16.8473 23.1506 16.25C22.8239 15.6433 22.6606 14.9433 22.6606 14.15C22.6606 13.3567 22.8193 12.6613 23.1366 12.064C23.4539 11.4667 23.8973 11.0093 24.4666 10.692C25.0453 10.3653 25.7079 10.202 26.4546 10.202C27.1826 10.202 27.8266 10.3607 28.3866 10.678C28.9466 10.9953 29.3759 11.434 29.6746 11.994C29.9826 12.5447 30.1366 13.17 30.1366 13.87ZM28.8206 13.604C28.8206 13.1187 28.7133 12.7033 28.4986 12.358C28.2839 12.0033 27.9899 11.7373 27.6166 11.56C27.2526 11.3733 26.8466 11.28 26.3986 11.28C25.7546 11.28 25.2039 11.4853 24.7466 11.896C24.2986 12.3067 24.0419 12.876 23.9766 13.604H28.8206ZM31.3422 14.136C31.3422 13.352 31.5009 12.666 31.8182 12.078C32.1356 11.4807 32.5696 11.0187 33.1202 10.692C33.6802 10.3653 34.3056 10.202 34.9962 10.202C35.5936 10.202 36.1489 10.342 36.6622 10.622C37.1756 10.8927 37.5676 11.252 37.8382 11.7V7.64H39.1262V18H37.8382V16.558C37.5862 17.0153 37.2129 17.3933 36.7182 17.692C36.2236 17.9813 35.6449 18.126 34.9822 18.126C34.3009 18.126 33.6802 17.958 33.1202 17.622C32.5696 17.286 32.1356 16.8147 31.8182 16.208C31.5009 15.6013 31.3422 14.9107 31.3422 14.136ZM37.8382 14.15C37.8382 13.5713 37.7216 13.0673 37.4882 12.638C37.2549 12.2087 36.9376 11.882 36.5362 11.658C36.1442 11.4247 35.7102 11.308 35.2342 11.308C34.7582 11.308 34.3242 11.42 33.9322 11.644C33.5402 11.868 33.2276 12.1947 32.9942 12.624C32.7609 13.0533 32.6442 13.5573 32.6442 14.136C32.6442 14.724 32.7609 15.2373 32.9942 15.676C33.2276 16.1053 33.5402 16.4367 33.9322 16.67C34.3242 16.894 34.7582 17.006 35.2342 17.006C35.7102 17.006 36.1442 16.894 36.5362 16.67C36.9376 16.4367 37.2549 16.1053 37.4882 15.676C37.7216 15.2373 37.8382 14.7287 37.8382 14.15ZM41.9372 9.082C41.6945 9.082 41.4892 8.998 41.3212 8.83C41.1532 8.662 41.0692 8.45667 41.0692 8.214C41.0692 7.97133 41.1532 7.766 41.3212 7.598C41.4892 7.43 41.6945 7.346 41.9372 7.346C42.1705 7.346 42.3665 7.43 42.5252 7.598C42.6932 7.766 42.7772 7.97133 42.7772 8.214C42.7772 8.45667 42.6932 8.662 42.5252 8.83C42.3665 8.998 42.1705 9.082 41.9372 9.082ZM42.5532 10.328V18H41.2792V10.328H42.5532ZM51.5285 10.328V18H50.2545V16.866C50.0118 17.258 49.6712 17.566 49.2325 17.79C48.8032 18.0047 48.3272 18.112 47.8045 18.112C47.2072 18.112 46.6705 17.9907 46.1945 17.748C45.7185 17.496 45.3405 17.1227 45.0605 16.628C44.7898 16.1333 44.6545 15.5313 44.6545 14.822V10.328H45.9145V14.654C45.9145 15.41 46.1058 15.9933 46.4885 16.404C46.8712 16.8053 47.3938 17.006 48.0565 17.006C48.7378 17.006 49.2745 16.796 49.6665 16.376C50.0585 15.956 50.2545 15.3447 50.2545 14.542V10.328H51.5285ZM62.9056 10.188C63.5029 10.188 64.0349 10.314 64.5016 10.566C64.9682 10.8087 65.3369 11.1773 65.6076 11.672C65.8782 12.1667 66.0136 12.7687 66.0136 13.478V18H64.7536V13.66C64.7536 12.8947 64.5622 12.3113 64.1796 11.91C63.8062 11.4993 63.2976 11.294 62.6536 11.294C61.9909 11.294 61.4636 11.5087 61.0716 11.938C60.6796 12.358 60.4836 12.9693 60.4836 13.772V18H59.2236V13.66C59.2236 12.8947 59.0322 12.3113 58.6496 11.91C58.2762 11.4993 57.7676 11.294 57.1236 11.294C56.4609 11.294 55.9336 11.5087 55.5416 11.938C55.1496 12.358 54.9536 12.9693 54.9536 13.772V18H53.6796V10.328H54.9536V11.434C55.2056 11.0327 55.5416 10.7247 55.9616 10.51C56.3909 10.2953 56.8622 10.188 57.3756 10.188C58.0196 10.188 58.5889 10.3327 59.0836 10.622C59.5782 10.9113 59.9469 11.336 60.1896 11.896C60.4042 11.3547 60.7589 10.9347 61.2536 10.636C61.7482 10.3373 62.2989 10.188 62.9056 10.188Z" fill="#1E1E1E"/>
<path d="M96.2229 18.1774C95.6794 19.1188 94.3206 19.1188 93.7771 18.1774L89.1913 10.2346C88.6478 9.29318 89.3272 8.11645 90.4142 8.11645L99.5859 8.11646C100.673 8.11646 101.352 9.29318 100.809 10.2346L96.2229 18.1774Z" fill="#E17223"/>
</svg>
