<svg width="69" height="17" viewBox="0 0 69 17" fill="none" xmlns="http://www.w3.org/2000/svg">
<path d="M6.216 13.5L3.892 9.51H2.352V13.5H1.078V3.742H4.228C4.96533 3.742 5.586 3.868 6.09 4.12C6.60333 4.372 6.986 4.71267 7.238 5.142C7.49 5.57133 7.616 6.06133 7.616 6.612C7.616 7.284 7.42 7.87667 7.028 8.39C6.64533 8.90333 6.06667 9.244 5.292 9.412L7.742 13.5H6.216ZM2.352 8.488H4.228C4.91867 8.488 5.43667 8.32 5.782 7.984C6.12733 7.63867 6.3 7.18133 6.3 6.612C6.3 6.03333 6.12733 5.58533 5.782 5.268C5.446 4.95067 4.928 4.792 4.228 4.792H2.352V8.488ZM16.5956 9.37C16.5956 9.61267 16.5816 9.86933 16.5536 10.14H10.4216C10.4682 10.896 10.7249 11.4887 11.1916 11.918C11.6676 12.338 12.2416 12.548 12.9136 12.548C13.4642 12.548 13.9216 12.422 14.2856 12.17C14.6589 11.9087 14.9202 11.5633 15.0696 11.134H16.4416C16.2362 11.8713 15.8256 12.4733 15.2096 12.94C14.5936 13.3973 13.8282 13.626 12.9136 13.626C12.1856 13.626 11.5322 13.4627 10.9536 13.136C10.3842 12.8093 9.93624 12.3473 9.60958 11.75C9.28291 11.1433 9.11958 10.4433 9.11958 9.65C9.11958 8.85667 9.27824 8.16133 9.59558 7.564C9.91291 6.96667 10.3562 6.50933 10.9256 6.192C11.5042 5.86533 12.1669 5.702 12.9136 5.702C13.6416 5.702 14.2856 5.86067 14.8456 6.178C15.4056 6.49533 15.8349 6.934 16.1336 7.494C16.4416 8.04467 16.5956 8.67 16.5956 9.37ZM15.2796 9.104C15.2796 8.61867 15.1722 8.20333 14.9576 7.858C14.7429 7.50333 14.4489 7.23733 14.0756 7.06C13.7116 6.87333 13.3056 6.78 12.8576 6.78C12.2136 6.78 11.6629 6.98533 11.2056 7.396C10.7576 7.80667 10.5009 8.376 10.4356 9.104H15.2796ZM21.1332 12.324L23.5132 5.828H24.8712L21.8612 13.5H20.3772L17.3672 5.828H18.7392L21.1332 12.324ZM26.7829 4.582C26.5402 4.582 26.3349 4.498 26.1669 4.33C25.9989 4.162 25.9149 3.95667 25.9149 3.714C25.9149 3.47133 25.9989 3.266 26.1669 3.098C26.3349 2.93 26.5402 2.846 26.7829 2.846C27.0162 2.846 27.2122 2.93 27.3709 3.098C27.5389 3.266 27.6229 3.47133 27.6229 3.714C27.6229 3.95667 27.5389 4.162 27.3709 4.33C27.2122 4.498 27.0162 4.582 26.7829 4.582ZM27.3989 5.828V13.5H26.1249V5.828H27.3989ZM36.5702 9.37C36.5702 9.61267 36.5562 9.86933 36.5282 10.14H30.3962C30.4429 10.896 30.6995 11.4887 31.1662 11.918C31.6422 12.338 32.2162 12.548 32.8882 12.548C33.4389 12.548 33.8962 12.422 34.2602 12.17C34.6335 11.9087 34.8949 11.5633 35.0442 11.134H36.4162C36.2109 11.8713 35.8002 12.4733 35.1842 12.94C34.5682 13.3973 33.8029 13.626 32.8882 13.626C32.1602 13.626 31.5069 13.4627 30.9282 13.136C30.3589 12.8093 29.9109 12.3473 29.5842 11.75C29.2575 11.1433 29.0942 10.4433 29.0942 9.65C29.0942 8.85667 29.2529 8.16133 29.5702 7.564C29.8875 6.96667 30.3309 6.50933 30.9002 6.192C31.4789 5.86533 32.1415 5.702 32.8882 5.702C33.6162 5.702 34.2602 5.86067 34.8202 6.178C35.3802 6.49533 35.8095 6.934 36.1082 7.494C36.4162 8.04467 36.5702 8.67 36.5702 9.37ZM35.2542 9.104C35.2542 8.61867 35.1469 8.20333 34.9322 7.858C34.7175 7.50333 34.4235 7.23733 34.0502 7.06C33.6862 6.87333 33.2802 6.78 32.8322 6.78C32.1882 6.78 31.6375 6.98533 31.1802 7.396C30.7322 7.80667 30.4755 8.376 30.4102 9.104H35.2542ZM48.4718 5.828L46.0778 13.5H44.7618L42.9138 7.41L41.0658 13.5H39.7498L37.3418 5.828H38.6438L40.4078 12.268L42.3118 5.828H43.6138L45.4758 12.282L47.2118 5.828H48.4718Z" fill="#1E1E1E"/>
<g clip-path="url(#clip0)">
<path fill-rule="evenodd" clip-rule="evenodd" d="M69 8.5C69 11.8137 66.3137 14.5 63 14.5C59.6863 14.5 57 11.8137 57 8.5C57 5.18629 59.6863 2.5 63 2.5C66.3137 2.5 69 5.18629 69 8.5ZM63.75 6.25C63.75 6.66421 63.4142 7 63 7C62.5858 7 62.25 6.66421 62.25 6.25C62.25 5.83579 62.5858 5.5 63 5.5C63.4142 5.5 63.75 5.83579 63.75 6.25ZM63 7.75C62.5858 7.75 62.25 8.08579 62.25 8.5V10.75C62.25 11.1642 62.5858 11.5 63 11.5C63.4142 11.5 63.75 11.1642 63.75 10.75V8.5C63.75 8.08579 63.4142 7.75 63 7.75Z" fill="#428FDC"/>
</g>
<defs>
<clipPath id="clip0">
<rect width="12" height="12" fill="white" transform="translate(57 2.5)"/>
</clipPath>
</defs>
</svg>
