<svg width="84" height="16" viewBox="0 0 84 16" fill="none" xmlns="http://www.w3.org/2000/svg">
<path d="M2.324 3.242V9.416C2.324 10.284 2.534 10.928 2.954 11.348C3.38333 11.768 3.976 11.978 4.732 11.978C5.47867 11.978 6.062 11.768 6.482 11.348C6.91133 10.928 7.126 10.284 7.126 9.416V3.242H8.4V9.402C8.4 10.214 8.23667 10.9 7.91 11.46C7.58333 12.0107 7.14 12.4213 6.58 12.692C6.02933 12.9627 5.40867 13.098 4.718 13.098C4.02733 13.098 3.402 12.9627 2.842 12.692C2.29133 12.4213 1.85267 12.0107 1.526 11.46C1.20867 10.9 1.05 10.214 1.05 9.402V3.242H2.324ZM14.2633 5.188C15.1966 5.188 15.9526 5.47267 16.5313 6.042C17.1099 6.602 17.3993 7.414 17.3993 8.478V13H16.1393V8.66C16.1393 7.89467 15.9479 7.31133 15.5653 6.91C15.1826 6.49933 14.6599 6.294 13.9973 6.294C13.3253 6.294 12.7886 6.504 12.3873 6.924C11.9953 7.344 11.7993 7.95533 11.7993 8.758V13H10.5253V5.328H11.7993V6.42C12.0513 6.028 12.3919 5.72467 12.8213 5.51C13.2599 5.29533 13.7406 5.188 14.2633 5.188ZM23.7643 13L20.7543 9.612V13H19.4803V2.64H20.7543V8.73L23.7083 5.328H25.4863L21.8743 9.15L25.5003 13H23.7643ZM30.4234 5.188C31.3568 5.188 32.1128 5.47267 32.6914 6.042C33.2701 6.602 33.5594 7.414 33.5594 8.478V13H32.2994V8.66C32.2994 7.89467 32.1081 7.31133 31.7254 6.91C31.3428 6.49933 30.8201 6.294 30.1574 6.294C29.4854 6.294 28.9488 6.504 28.5474 6.924C28.1554 7.344 27.9594 7.95533 27.9594 8.758V13H26.6854V5.328H27.9594V6.42C28.2114 6.028 28.5521 5.72467 28.9814 5.51C29.4201 5.29533 29.9008 5.188 30.4234 5.188ZM38.9865 13.126C38.2678 13.126 37.6145 12.9627 37.0265 12.636C36.4478 12.3093 35.9905 11.8473 35.6545 11.25C35.3278 10.6433 35.1645 9.94333 35.1645 9.15C35.1645 8.366 35.3325 7.67533 35.6685 7.078C36.0138 6.47133 36.4805 6.00933 37.0685 5.692C37.6565 5.36533 38.3145 5.202 39.0425 5.202C39.7705 5.202 40.4285 5.36533 41.0165 5.692C41.6045 6.00933 42.0665 6.46667 42.4025 7.064C42.7478 7.66133 42.9205 8.35667 42.9205 9.15C42.9205 9.94333 42.7432 10.6433 42.3885 11.25C42.0432 11.8473 41.5718 12.3093 40.9745 12.636C40.3772 12.9627 39.7145 13.126 38.9865 13.126ZM38.9865 12.006C39.4438 12.006 39.8732 11.8987 40.2745 11.684C40.6758 11.4693 40.9978 11.1473 41.2405 10.718C41.4925 10.2887 41.6185 9.766 41.6185 9.15C41.6185 8.534 41.4972 8.01133 41.2545 7.582C41.0118 7.15267 40.6945 6.83533 40.3025 6.63C39.9105 6.41533 39.4858 6.308 39.0285 6.308C38.5618 6.308 38.1325 6.41533 37.7405 6.63C37.3578 6.83533 37.0498 7.15267 36.8165 7.582C36.5832 8.01133 36.4665 8.534 36.4665 9.15C36.4665 9.77533 36.5785 10.3027 36.8025 10.732C37.0358 11.1613 37.3438 11.4833 37.7265 11.698C38.1092 11.9033 38.5292 12.006 38.9865 12.006ZM54.8156 5.328L52.4216 13H51.1056L49.2576 6.91L47.4096 13H46.0936L43.6856 5.328H44.9876L46.7516 11.768L48.6556 5.328H49.9576L51.8196 11.782L53.5556 5.328H54.8156ZM59.818 5.188C60.7513 5.188 61.5073 5.47267 62.086 6.042C62.6646 6.602 62.954 7.414 62.954 8.478V13H61.694V8.66C61.694 7.89467 61.5026 7.31133 61.12 6.91C60.7373 6.49933 60.2146 6.294 59.552 6.294C58.88 6.294 58.3433 6.504 57.942 6.924C57.55 7.344 57.354 7.95533 57.354 8.758V13H56.08V5.328H57.354V6.42C57.606 6.028 57.9466 5.72467 58.376 5.51C58.8146 5.29533 59.2953 5.188 59.818 5.188Z" fill="#303030"/>
<path fill-rule="evenodd" clip-rule="evenodd" d="M78 14C81.3137 14 84 11.3137 84 8C84 4.68629 81.3137 2 78 2C74.6863 2 72 4.68629 72 8C72 11.3137 74.6863 14 78 14ZM75.6446 5.6898C75.4311 6.0118 75.3244 6.32968 75.3244 6.64342C75.3244 6.79533 75.3917 6.93651 75.5265 7.06696C75.6612 7.19741 75.8266 7.26263 76.0226 7.26263C76.3551 7.26263 76.5809 7.07604 76.6999 6.70286C76.8259 6.34619 76.9799 6.0762 77.1619 5.89291C77.3439 5.70962 77.6274 5.61798 78.0124 5.61798C78.3414 5.61798 78.61 5.7088 78.8183 5.89044C79.0265 6.07208 79.1306 6.29499 79.1306 6.55919C79.1306 6.69459 79.0965 6.82009 79.0283 6.93568C78.96 7.05127 78.876 7.15613 78.7763 7.25025C78.6765 7.34437 78.5146 7.48389 78.2906 7.66883C78.0351 7.88019 77.8321 8.06266 77.6816 8.21622C77.5311 8.36979 77.4104 8.54813 77.3194 8.75124C77.0776 9.68478 78.3321 9.76008 78.6214 9.09305C78.6564 9.02865 78.7097 8.95764 78.7815 8.88003C78.8532 8.80242 78.9486 8.71244 79.0676 8.61006C79.4981 8.24678 79.7965 7.98836 79.9628 7.83479C80.129 7.68123 80.2725 7.49876 80.3932 7.2874C80.514 7.07604 80.5744 6.83002 80.5744 6.5493C80.5744 6.19263 80.4685 5.86237 80.2568 5.55854C80.045 5.25471 79.7449 5.01445 79.3564 4.83777C78.9679 4.66108 78.5199 4.57275 78.0124 4.57275C77.4664 4.57275 76.9886 4.67841 76.5791 4.88977C76.1696 5.10113 75.8581 5.36781 75.6446 5.6898ZM77.25 11C77.25 11.4142 77.5858 11.75 78 11.75C78.4142 11.75 78.75 11.4142 78.75 11C78.75 10.5858 78.4142 10.25 78 10.25C77.5858 10.25 77.25 10.5858 77.25 11Z" fill="#868686"/>
</svg>
