<svg width="111" height="27" viewBox="0 0 111 27" fill="none" xmlns="http://www.w3.org/2000/svg">
<rect width="111" height="27" rx="7" fill="#D24E37"/>
<path d="M18.596 8.242V18H17.322V13.576H12.352V18H11.078V8.242H12.352V12.526H17.322V8.242H18.596ZM21.4294 9.082C21.1867 9.082 20.9814 8.998 20.8134 8.83C20.6454 8.662 20.5614 8.45667 20.5614 8.214C20.5614 7.97133 20.6454 7.766 20.8134 7.598C20.9814 7.43 21.1867 7.346 21.4294 7.346C21.6627 7.346 21.8587 7.43 22.0174 7.598C22.1854 7.766 22.2694 7.97133 22.2694 8.214C22.2694 8.45667 22.1854 8.662 22.0174 8.83C21.8587 8.998 21.6627 9.082 21.4294 9.082ZM22.0454 10.328V18H20.7714V10.328H22.0454ZM27.3807 10.202C28.0433 10.202 28.622 10.3467 29.1167 10.636C29.6207 10.9253 29.994 11.2893 30.2367 11.728V10.328H31.5247V18.168C31.5247 18.868 31.3753 19.4887 31.0767 20.03C30.778 20.5807 30.3487 21.01 29.7887 21.318C29.238 21.626 28.594 21.78 27.8567 21.78C26.8487 21.78 26.0087 21.542 25.3367 21.066C24.6647 20.59 24.268 19.9413 24.1467 19.12H25.4067C25.5467 19.5867 25.836 19.96 26.2747 20.24C26.7133 20.5293 27.2407 20.674 27.8567 20.674C28.5567 20.674 29.126 20.4547 29.5647 20.016C30.0127 19.5773 30.2367 18.9613 30.2367 18.168V16.558C29.9847 17.006 29.6113 17.3793 29.1167 17.678C28.622 17.9767 28.0433 18.126 27.3807 18.126C26.6993 18.126 26.0787 17.958 25.5187 17.622C24.968 17.286 24.534 16.8147 24.2167 16.208C23.8993 15.6013 23.7407 14.9107 23.7407 14.136C23.7407 13.352 23.8993 12.666 24.2167 12.078C24.534 11.4807 24.968 11.0187 25.5187 10.692C26.0787 10.3653 26.6993 10.202 27.3807 10.202ZM30.2367 14.15C30.2367 13.5713 30.12 13.0673 29.8867 12.638C29.6533 12.2087 29.336 11.882 28.9347 11.658C28.5427 11.4247 28.1087 11.308 27.6327 11.308C27.1567 11.308 26.7227 11.42 26.3307 11.644C25.9387 11.868 25.626 12.1947 25.3927 12.624C25.1593 13.0533 25.0427 13.5573 25.0427 14.136C25.0427 14.724 25.1593 15.2373 25.3927 15.676C25.626 16.1053 25.9387 16.4367 26.3307 16.67C26.7227 16.894 27.1567 17.006 27.6327 17.006C28.1087 17.006 28.5427 16.894 28.9347 16.67C29.336 16.4367 29.6533 16.1053 29.8867 15.676C30.12 15.2373 30.2367 14.7287 30.2367 14.15ZM37.4856 10.188C38.0643 10.188 38.5869 10.314 39.0536 10.566C39.5203 10.8087 39.8843 11.1773 40.1456 11.672C40.4163 12.1667 40.5516 12.7687 40.5516 13.478V18H39.2916V13.66C39.2916 12.8947 39.1003 12.3113 38.7176 11.91C38.3349 11.4993 37.8123 11.294 37.1496 11.294C36.4776 11.294 35.9409 11.504 35.5396 11.924C35.1476 12.344 34.9516 12.9553 34.9516 13.758V18H33.6776V7.64H34.9516V11.42C35.2036 11.028 35.5489 10.7247 35.9876 10.51C36.4356 10.2953 36.9349 10.188 37.4856 10.188Z" fill="#1E1E1E"/>
<path d="M89.3875 14.4354C88.8708 13.9188 88.8708 13.0812 89.3875 12.5646L94.0646 7.88746C94.5812 7.37085 95.4188 7.37085 95.9354 7.88746L100.613 12.5646C101.129 13.0812 101.129 13.9188 100.613 14.4354L95.9354 19.1125C95.4188 19.6292 94.5812 19.6292 94.0646 19.1125L89.3875 14.4354Z" fill="#C91C00"/>
</svg>
