<svg width="111" height="27" viewBox="0 0 111 27" fill="none" xmlns="http://www.w3.org/2000/svg">
<rect width="111" height="27" rx="7" fill="#FBB74E"/>
<path d="M12.352 16.964H15.768V18H11.078V8.242H12.352V16.964ZM20.467 18.126C19.7483 18.126 19.095 17.9627 18.507 17.636C17.9283 17.3093 17.471 16.8473 17.135 16.25C16.8083 15.6433 16.645 14.9433 16.645 14.15C16.645 13.366 16.813 12.6753 17.149 12.078C17.4943 11.4713 17.961 11.0093 18.549 10.692C19.137 10.3653 19.795 10.202 20.523 10.202C21.251 10.202 21.909 10.3653 22.497 10.692C23.085 11.0093 23.547 11.4667 23.883 12.064C24.2283 12.6613 24.401 13.3567 24.401 14.15C24.401 14.9433 24.2236 15.6433 23.869 16.25C23.5236 16.8473 23.0523 17.3093 22.455 17.636C21.8576 17.9627 21.195 18.126 20.467 18.126ZM20.467 17.006C20.9243 17.006 21.3536 16.8987 21.755 16.684C22.1563 16.4693 22.4783 16.1473 22.721 15.718C22.973 15.2887 23.099 14.766 23.099 14.15C23.099 13.534 22.9776 13.0113 22.735 12.582C22.4923 12.1527 22.175 11.8353 21.783 11.63C21.391 11.4153 20.9663 11.308 20.509 11.308C20.0423 11.308 19.613 11.4153 19.221 11.63C18.8383 11.8353 18.5303 12.1527 18.297 12.582C18.0636 13.0113 17.947 13.534 17.947 14.15C17.947 14.7753 18.059 15.3027 18.283 15.732C18.5163 16.1613 18.8243 16.4833 19.207 16.698C19.5896 16.9033 20.0096 17.006 20.467 17.006ZM36.296 10.328L33.902 18H32.586L30.738 11.91L28.89 18H27.574L25.166 10.328H26.468L28.232 16.768L30.136 10.328H31.438L33.3 16.782L35.036 10.328H36.296Z" fill="#1E1E1E"/>
<g clip-path="url(#clip0_561:1216)">
<circle cx="95" cy="13.5" r="6" fill="#D99530"/>
</g>
<defs>
<clipPath id="clip0_561:1216">
<rect width="12" height="12" fill="white" transform="translate(89 7.5)"/>
</clipPath>
</defs>
</svg>
