<svg width="111" height="27" viewBox="0 0 111 27" fill="none" xmlns="http://www.w3.org/2000/svg">
<rect width="111" height="27" rx="7" fill="white"/>
<path d="M14.172 18.098C13.528 18.098 12.9493 17.986 12.436 17.762C11.932 17.5287 11.5353 17.2113 11.246 16.81C10.9567 16.3993 10.8073 15.928 10.798 15.396H12.156C12.2027 15.8533 12.3893 16.2407 12.716 16.558C13.052 16.866 13.5373 17.02 14.172 17.02C14.7787 17.02 15.2547 16.8707 15.6 16.572C15.9547 16.264 16.132 15.872 16.132 15.396C16.132 15.0227 16.0293 14.7193 15.824 14.486C15.6187 14.2527 15.362 14.0753 15.054 13.954C14.746 13.8327 14.3307 13.702 13.808 13.562C13.164 13.394 12.646 13.226 12.254 13.058C11.8713 12.89 11.54 12.6287 11.26 12.274C10.9893 11.91 10.854 11.4247 10.854 10.818C10.854 10.286 10.9893 9.81467 11.26 9.404C11.5307 8.99333 11.9087 8.676 12.394 8.452C12.8887 8.228 13.4533 8.116 14.088 8.116C15.0027 8.116 15.7493 8.34467 16.328 8.802C16.916 9.25933 17.2473 9.866 17.322 10.622H15.922C15.8753 10.2487 15.6793 9.922 15.334 9.642C14.9887 9.35267 14.5313 9.208 13.962 9.208C13.43 9.208 12.996 9.348 12.66 9.628C12.324 9.89867 12.156 10.2813 12.156 10.776C12.156 11.1307 12.254 11.42 12.45 11.644C12.6553 11.868 12.9027 12.0407 13.192 12.162C13.4907 12.274 13.906 12.4047 14.438 12.554C15.082 12.7313 15.6 12.9087 15.992 13.086C16.384 13.254 16.72 13.52 17 13.884C17.28 14.2387 17.42 14.724 17.42 15.34C17.42 15.816 17.294 16.264 17.042 16.684C16.79 17.104 16.4167 17.4447 15.922 17.706C15.4273 17.9673 14.844 18.098 14.172 18.098ZM26.2948 13.87C26.2948 14.1127 26.2808 14.3693 26.2528 14.64H20.1208C20.1675 15.396 20.4241 15.9887 20.8908 16.418C21.3668 16.838 21.9408 17.048 22.6128 17.048C23.1635 17.048 23.6208 16.922 23.9848 16.67C24.3581 16.4087 24.6195 16.0633 24.7688 15.634H26.1408C25.9355 16.3713 25.5248 16.9733 24.9088 17.44C24.2928 17.8973 23.5275 18.126 22.6128 18.126C21.8848 18.126 21.2315 17.9627 20.6528 17.636C20.0835 17.3093 19.6355 16.8473 19.3088 16.25C18.9821 15.6433 18.8188 14.9433 18.8188 14.15C18.8188 13.3567 18.9775 12.6613 19.2948 12.064C19.6121 11.4667 20.0555 11.0093 20.6248 10.692C21.2035 10.3653 21.8661 10.202 22.6128 10.202C23.3408 10.202 23.9848 10.3607 24.5448 10.678C25.1048 10.9953 25.5341 11.434 25.8328 11.994C26.1408 12.5447 26.2948 13.17 26.2948 13.87ZM24.9788 13.604C24.9788 13.1187 24.8715 12.7033 24.6568 12.358C24.4421 12.0033 24.1481 11.7373 23.7748 11.56C23.4108 11.3733 23.0048 11.28 22.5568 11.28C21.9128 11.28 21.3621 11.4853 20.9048 11.896C20.4568 12.3067 20.2001 12.876 20.1348 13.604H24.9788ZM29.2504 7.64V18H27.9764V7.64H29.2504ZM38.4218 13.87C38.4218 14.1127 38.4078 14.3693 38.3798 14.64H32.2478C32.2944 15.396 32.5511 15.9887 33.0178 16.418C33.4938 16.838 34.0678 17.048 34.7398 17.048C35.2904 17.048 35.7478 16.922 36.1118 16.67C36.4851 16.4087 36.7464 16.0633 36.8958 15.634H38.2678C38.0624 16.3713 37.6518 16.9733 37.0358 17.44C36.4198 17.8973 35.6544 18.126 34.7398 18.126C34.0118 18.126 33.3584 17.9627 32.7798 17.636C32.2104 17.3093 31.7624 16.8473 31.4358 16.25C31.1091 15.6433 30.9458 14.9433 30.9458 14.15C30.9458 13.3567 31.1044 12.6613 31.4218 12.064C31.7391 11.4667 32.1824 11.0093 32.7518 10.692C33.3304 10.3653 33.9931 10.202 34.7398 10.202C35.4678 10.202 36.1118 10.3607 36.6718 10.678C37.2318 10.9953 37.6611 11.434 37.9598 11.994C38.2678 12.5447 38.4218 13.17 38.4218 13.87ZM37.1058 13.604C37.1058 13.1187 36.9984 12.7033 36.7838 12.358C36.5691 12.0033 36.2751 11.7373 35.9018 11.56C35.5378 11.3733 35.1318 11.28 34.6838 11.28C34.0398 11.28 33.4891 11.4853 33.0318 11.896C32.5838 12.3067 32.3271 12.876 32.2618 13.604H37.1058ZM39.6274 14.15C39.6274 13.3567 39.7861 12.666 40.1034 12.078C40.4207 11.4807 40.8594 11.0187 41.4194 10.692C41.9887 10.3653 42.6374 10.202 43.3654 10.202C44.3081 10.202 45.0827 10.4307 45.6894 10.888C46.3054 11.3453 46.7114 11.98 46.9074 12.792H45.5354C45.4047 12.3253 45.1481 11.9567 44.7654 11.686C44.3921 11.4153 43.9254 11.28 43.3654 11.28C42.6374 11.28 42.0494 11.532 41.6014 12.036C41.1534 12.5307 40.9294 13.2353 40.9294 14.15C40.9294 15.074 41.1534 15.788 41.6014 16.292C42.0494 16.796 42.6374 17.048 43.3654 17.048C43.9254 17.048 44.3921 16.9173 44.7654 16.656C45.1387 16.3947 45.3954 16.0213 45.5354 15.536H46.9074C46.7021 16.32 46.2914 16.95 45.6754 17.426C45.0594 17.8927 44.2894 18.126 43.3654 18.126C42.6374 18.126 41.9887 17.9627 41.4194 17.636C40.8594 17.3093 40.4207 16.8473 40.1034 16.25C39.7861 15.6527 39.6274 14.9527 39.6274 14.15ZM50.1613 11.378V15.9C50.1613 16.2733 50.2406 16.5393 50.3993 16.698C50.558 16.8473 50.8333 16.922 51.2253 16.922H52.1633V18H51.0153C50.306 18 49.774 17.8367 49.4193 17.51C49.0646 17.1833 48.8873 16.6467 48.8873 15.9V11.378H47.8933V10.328H48.8873V8.396H50.1613V10.328H52.1633V11.378H50.1613Z" fill="#1E1E1E"/>
<path d="M93.0645 16.7242L88.0708 11.7304C87.8299 11.4896 87.8299 11.0991 88.0708 10.8583L88.6532 10.2758C88.8936 10.0354 89.2833 10.0349 89.5243 10.2748L93.5006 14.2325L97.4769 10.2748C97.7179 10.0349 98.1076 10.0354 98.348 10.2758L98.9304 10.8583C99.1713 11.0991 99.1713 11.4896 98.9304 11.7304L93.9367 16.7242C93.6959 16.965 93.3054 16.965 93.0645 16.7242Z" fill="#1E1E1E"/>
</svg>
