<svg width="111" height="27" viewBox="0 0 111 27" fill="none" xmlns="http://www.w3.org/2000/svg">
<rect width="111" height="27" rx="7" fill="#D2D2D2"/>
<path d="M12.324 8.242V14.416C12.324 15.284 12.534 15.928 12.954 16.348C13.3833 16.768 13.976 16.978 14.732 16.978C15.4787 16.978 16.062 16.768 16.482 16.348C16.9113 15.928 17.126 15.284 17.126 14.416V8.242H18.4V14.402C18.4 15.214 18.2367 15.9 17.91 16.46C17.5833 17.0107 17.14 17.4213 16.58 17.692C16.0293 17.9627 15.4087 18.098 14.718 18.098C14.0273 18.098 13.402 17.9627 12.842 17.692C12.2913 17.4213 11.8527 17.0107 11.526 16.46C11.2087 15.9 11.05 15.214 11.05 14.402V8.242H12.324ZM24.2633 10.188C25.1966 10.188 25.9526 10.4727 26.5313 11.042C27.1099 11.602 27.3993 12.414 27.3993 13.478V18H26.1393V13.66C26.1393 12.8947 25.9479 12.3113 25.5653 11.91C25.1826 11.4993 24.6599 11.294 23.9973 11.294C23.3253 11.294 22.7886 11.504 22.3873 11.924C21.9953 12.344 21.7993 12.9553 21.7993 13.758V18H20.5253V10.328H21.7993V11.42C22.0513 11.028 22.3919 10.7247 22.8213 10.51C23.2599 10.2953 23.7406 10.188 24.2633 10.188ZM33.7643 18L30.7543 14.612V18H29.4803V7.64H30.7543V13.73L33.7083 10.328H35.4863L31.8743 14.15L35.5003 18H33.7643ZM40.4234 10.188C41.3568 10.188 42.1128 10.4727 42.6914 11.042C43.2701 11.602 43.5594 12.414 43.5594 13.478V18H42.2994V13.66C42.2994 12.8947 42.1081 12.3113 41.7254 11.91C41.3428 11.4993 40.8201 11.294 40.1574 11.294C39.4854 11.294 38.9488 11.504 38.5474 11.924C38.1554 12.344 37.9594 12.9553 37.9594 13.758V18H36.6854V10.328H37.9594V11.42C38.2114 11.028 38.5521 10.7247 38.9814 10.51C39.4201 10.2953 39.9008 10.188 40.4234 10.188ZM48.9865 18.126C48.2678 18.126 47.6145 17.9627 47.0265 17.636C46.4478 17.3093 45.9905 16.8473 45.6545 16.25C45.3278 15.6433 45.1645 14.9433 45.1645 14.15C45.1645 13.366 45.3325 12.6753 45.6685 12.078C46.0138 11.4713 46.4805 11.0093 47.0685 10.692C47.6565 10.3653 48.3145 10.202 49.0425 10.202C49.7705 10.202 50.4285 10.3653 51.0165 10.692C51.6045 11.0093 52.0665 11.4667 52.4025 12.064C52.7478 12.6613 52.9205 13.3567 52.9205 14.15C52.9205 14.9433 52.7432 15.6433 52.3885 16.25C52.0432 16.8473 51.5718 17.3093 50.9745 17.636C50.3772 17.9627 49.7145 18.126 48.9865 18.126ZM48.9865 17.006C49.4438 17.006 49.8732 16.8987 50.2745 16.684C50.6758 16.4693 50.9978 16.1473 51.2405 15.718C51.4925 15.2887 51.6185 14.766 51.6185 14.15C51.6185 13.534 51.4972 13.0113 51.2545 12.582C51.0118 12.1527 50.6945 11.8353 50.3025 11.63C49.9105 11.4153 49.4858 11.308 49.0285 11.308C48.5618 11.308 48.1325 11.4153 47.7405 11.63C47.3578 11.8353 47.0498 12.1527 46.8165 12.582C46.5832 13.0113 46.4665 13.534 46.4665 14.15C46.4665 14.7753 46.5785 15.3027 46.8025 15.732C47.0358 16.1613 47.3438 16.4833 47.7265 16.698C48.1092 16.9033 48.5292 17.006 48.9865 17.006ZM64.8156 10.328L62.4216 18H61.1056L59.2576 11.91L57.4096 18H56.0936L53.6856 10.328H54.9876L56.7516 16.768L58.6556 10.328H59.9576L61.8196 16.782L63.5556 10.328H64.8156ZM69.818 10.188C70.7513 10.188 71.5073 10.4727 72.086 11.042C72.6646 11.602 72.954 12.414 72.954 13.478V18H71.694V13.66C71.694 12.8947 71.5026 12.3113 71.12 11.91C70.7373 11.4993 70.2146 11.294 69.552 11.294C68.88 11.294 68.3433 11.504 67.942 11.924C67.55 12.344 67.354 12.9553 67.354 13.758V18H66.08V10.328H67.354V11.42C67.606 11.028 67.9466 10.7247 68.376 10.51C68.8146 10.2953 69.2953 10.188 69.818 10.188Z" fill="#1E1E1E"/>
<g clip-path="url(#clip0_561:1222)">
<path fill-rule="evenodd" clip-rule="evenodd" d="M95 19.5C98.3137 19.5 101 16.8137 101 13.5C101 10.1863 98.3137 7.5 95 7.5C91.6863 7.5 89 10.1863 89 13.5C89 16.8137 91.6863 19.5 95 19.5ZM92.6446 11.1898C92.4311 11.5118 92.3244 11.8297 92.3244 12.1434C92.3244 12.2953 92.3917 12.4365 92.5265 12.567C92.6612 12.6974 92.8266 12.7626 93.0226 12.7626C93.3551 12.7626 93.5809 12.576 93.6999 12.2029C93.8259 11.8462 93.9799 11.5762 94.1619 11.3929C94.3439 11.2096 94.6274 11.118 95.0124 11.118C95.3414 11.118 95.61 11.2088 95.8183 11.3904C96.0265 11.5721 96.1306 11.795 96.1306 12.0592C96.1306 12.1946 96.0965 12.3201 96.0283 12.4357C95.96 12.5513 95.876 12.6561 95.7763 12.7503C95.6765 12.8444 95.5146 12.9839 95.2906 13.1688C95.0351 13.3802 94.8321 13.5627 94.6816 13.7162C94.5311 13.8698 94.4104 14.0481 94.3194 14.2512C94.0776 15.1848 95.3321 15.2601 95.6214 14.593C95.6564 14.5286 95.7097 14.4576 95.7815 14.38C95.8532 14.3024 95.9486 14.2124 96.0676 14.1101C96.4981 13.7468 96.7965 13.4884 96.9628 13.3348C97.129 13.1812 97.2725 12.9988 97.3932 12.7874C97.514 12.576 97.5744 12.33 97.5744 12.0493C97.5744 11.6926 97.4685 11.3624 97.2568 11.0585C97.045 10.7547 96.7449 10.5145 96.3564 10.3378C95.9679 10.1611 95.5199 10.0727 95.0124 10.0727C94.4664 10.0727 93.9886 10.1784 93.5791 10.3898C93.1696 10.6011 92.8581 10.8678 92.6446 11.1898ZM94.25 16.5C94.25 16.9142 94.5858 17.25 95 17.25C95.4142 17.25 95.75 16.9142 95.75 16.5C95.75 16.0858 95.4142 15.75 95 15.75C94.5858 15.75 94.25 16.0858 94.25 16.5Z" fill="#868686"/>
</g>
<defs>
<clipPath id="clip0_561:1222">
<rect width="12" height="12" fill="white" transform="translate(89 7.5)"/>
</clipPath>
</defs>
</svg>
